<?xml version="1.0" encoding="UTF-8" standalone="no"?><!DOCTYPE svg PUBLIC "-//W3C//DTD SVG 1.1//EN" "http://www.w3.org/Graphics/SVG/1.1/DTD/svg11.dtd"><svg width="100%" height="100%" viewBox="0 0 50 72" version="1.1" xmlns="http://www.w3.org/2000/svg" xmlns:xlink="http://www.w3.org/1999/xlink" xml:space="preserve" style="fill-rule:evenodd;clip-rule:evenodd;stroke-linejoin:round;stroke-miterlimit:1.41421;"><path d="M31.921,6.089c-0.236,-0.218 -0.478,-0.423 -0.724,-0.616l-0.009,-0.006c-0.246,-0.193 -0.495,-0.372 -0.749,-0.537c0.509,0.332 1.008,0.723 1.482,1.159Z" style="fill:#e8e58b;fill-rule:nonzero;"/><path d="M29.434,15.543c0.237,0.305 0.491,0.596 0.76,0.857c0.943,-3.884 1.115,-7.86 0.244,-11.47l0,-0.001c-0.242,-0.157 -0.487,-0.3 -0.732,-0.43l-0.089,-0.048c-0.123,-0.063 -0.245,-0.122 -0.368,-0.178c-0.153,-0.067 -0.305,-0.13 -0.457,-0.185c-0.079,-0.03 -0.158,-0.055 -0.236,-0.081c-0.185,-0.059 -0.369,-0.112 -0.551,-0.15l-0.116,-0.021c-0.211,-0.039 -0.419,-0.069 -0.624,-0.079l0,0c-0.918,-0.042 -1.226,0.479 -1.289,1.1c-0.022,0.207 -0.015,0.424 0.004,0.636c0.02,0.215 0.042,0.429 0.065,0.642c0.047,0.427 0.101,0.851 0.164,1.274c0.19,1.266 0.462,2.508 0.867,3.706c0.201,0.599 0.436,1.188 0.71,1.763c0.365,0.766 0.799,1.51 1.317,2.223c0.095,0.132 0.193,0.262 0.292,0.392l0.039,0.05Z" style="fill:#fff;fill-opacity:0.403616;fill-rule:nonzero;"/><path d="M29.108,34.678c-0.003,0.276 0.091,0.564 0.189,0.829c0.391,1.065 1.093,1.571 2.295,1.434c0.743,-0.086 1.407,-1.159 2.252,-0.229c-0.218,0.268 -0.442,0.519 -0.673,0.753c-0.694,0.703 -1.443,1.256 -2.221,1.658c-1.295,0.671 -2.669,0.924 -3.987,0.76c-0.528,-0.066 -1.047,-0.199 -1.548,-0.398c-0.753,-0.3 -1.467,-0.75 -2.114,-1.35c-0.431,-0.401 -0.833,-0.868 -1.197,-1.402c-0.145,-0.215 -0.299,-0.446 -0.397,-0.685c-0.066,-0.16 -0.108,-0.324 -0.107,-0.489c0.001,-0.248 0.098,-0.5 0.353,-0.749c0.611,-0.597 1.271,-0.421 1.927,0.005c0.676,0.44 1.044,1.453 2.421,1.097c0.115,-1.277 0.231,-2.578 0.349,-3.893c0.118,-1.315 0.237,-2.643 0.357,-3.97c0.085,-0.95 -0.326,-1.469 -1.122,-1.566c-0.113,-0.014 -0.235,-0.019 -0.364,-0.016c-1.134,0.029 -2.823,-0.133 -4.819,-0.026c-0.222,0.011 -0.448,0.026 -0.677,0.046c-1.374,0.114 -2.872,0.369 -4.421,0.902c-0.516,0.178 -1.038,0.386 -1.563,0.63c-3.674,1.709 -7.489,5.173 -10.511,12.115l0,0.001c-0.1,0.293 -0.191,0.588 -0.277,0.886c-0.029,0.096 -0.054,0.194 -0.08,0.291c-0.056,0.204 -0.109,0.409 -0.158,0.615c-0.028,0.113 -0.054,0.226 -0.078,0.339c-0.045,0.199 -0.085,0.4 -0.123,0.6c-0.02,0.11 -0.043,0.221 -0.062,0.331c-0.045,0.264 -0.085,0.529 -0.12,0.794c-0.017,0.134 -0.032,0.269 -0.047,0.403c-0.022,0.198 -0.043,0.396 -0.06,0.595c-0.013,0.153 -0.021,0.308 -0.031,0.462c-0.009,0.148 -0.017,0.297 -0.023,0.446c-0.007,0.17 -0.012,0.34 -0.015,0.511c-0.002,0.126 -0.001,0.253 -0.001,0.379c0,0.187 0,0.374 0.005,0.562l0.003,0.076c0.015,0.482 0.047,0.965 0.095,1.448c0.004,0.05 0.008,0.102 0.013,0.153c0.024,0.227 0.053,0.455 0.084,0.681c0.009,0.066 0.018,0.132 0.027,0.198c0.035,0.233 0.071,0.466 0.112,0.699l0.02,0.103c0.144,0.791 0.33,1.575 0.56,2.349c2.377,3.078 5.242,5.702 8.806,7.393c4.846,2.3 10.13,3.377 15.434,1.906c4.879,-1.352 9.372,-4.762 11.966,-9.117c5.221,-8.757 2.162,-19.14 -4.509,-26.186l-0.001,-0.001l-0.071,-0.034c-0.11,-0.055 -0.22,-0.107 -0.33,-0.156l-0.113,-0.05c-0.126,-0.055 -0.253,-0.106 -0.38,-0.154l-0.097,-0.034c-0.114,-0.04 -0.228,-0.076 -0.342,-0.109l-0.08,-0.024c-0.13,-0.036 -0.261,-0.065 -0.393,-0.09l-0.101,-0.018c-0.135,-0.022 -0.27,-0.041 -0.404,-0.05l-0.027,-0.001c-0.129,-0.008 -0.257,-0.008 -0.385,-0.002l-0.092,0.004c-0.132,0.009 -0.264,0.025 -0.395,0.05l-0.072,0.016c-0.12,0.026 -0.239,0.059 -0.358,0.099l-0.066,0.021c-0.129,0.048 -0.258,0.106 -0.386,0.173l-0.085,0.047c-0.131,0.073 -0.261,0.152 -0.39,0.248c-2.325,1.724 -1.367,5.015 -1.395,7.691ZM13.218,37.396c-7.203,10.605 -9.059,-7.467 5.604,-8.66c5.722,-0.466 -1.923,3.241 -5.604,8.66ZM25.105,44.011c0.19,-1.128 0.317,-2.23 0.342,-3.31c0.017,0.981 -0.133,2.071 -0.342,3.31Z" style="fill:#fff;fill-opacity:0.397592;fill-rule:nonzero;"/><path d="M6.049,58.834c0.458,0.699 0.959,1.374 1.503,2.02c-0.544,-0.646 -1.045,-1.321 -1.503,-2.02Z" style="fill:#e23737;fill-rule:nonzero;"/><path d="M10.428,63.655c0.647,0.517 1.331,0.999 2.053,1.441c-0.722,-0.442 -1.407,-0.924 -2.053,-1.441Z" style="fill:#e23737;fill-rule:nonzero;"/><path d="M4.002,54.874l0.003,0.007c0.106,0.268 0.217,0.534 0.333,0.798l0.002,0.006c-0.118,-0.268 -0.23,-0.539 -0.338,-0.811Z" style="fill:#e23737;fill-rule:nonzero;"/><path d="M3.374,53.057c0.084,0.283 0.176,0.564 0.271,0.844l0.001,0.004c-0.096,-0.281 -0.187,-0.564 -0.272,-0.848Z" style="fill:#e23737;fill-rule:nonzero;"/><path d="M3.671,53.979l0.001,0.002c0.093,0.271 0.193,0.54 0.297,0.807l0.002,0.006c-0.105,-0.27 -0.206,-0.541 -0.3,-0.815Z" style="fill:#e23737;fill-rule:nonzero;"/><path d="M4.365,55.74l0.003,0.007c0.122,0.274 0.249,0.546 0.382,0.815c-0.134,-0.271 -0.262,-0.545 -0.385,-0.822Z" style="fill:#e23737;fill-rule:nonzero;"/><path d="M30.194,16.4c0.097,0.094 0.194,0.188 0.295,0.271l0.049,0.04c0.1,0.081 0.201,0.156 0.306,0.224l0.013,0.009c0.109,0.071 0.222,0.134 0.338,0.19l0.057,0.025c0.094,0.043 0.19,0.079 0.288,0.11l0.089,0.027c0.109,0.03 0.221,0.054 0.336,0.067l0.03,0.005c0.124,0.014 0.252,0.014 0.382,0.007l0.104,-0.011c0.1,-0.011 0.202,-0.028 0.306,-0.051l0.12,-0.029c0.138,-0.038 0.279,-0.084 0.426,-0.148c0.208,-0.091 0.398,-0.2 0.571,-0.321c0.518,-0.365 0.882,-0.853 1.14,-1.385c0.345,-0.711 0.5,-1.503 0.578,-2.19c-0.002,-0.236 -0.023,-0.477 -0.053,-0.717c-0.009,-0.07 -0.02,-0.139 -0.031,-0.208c-0.029,-0.186 -0.066,-0.374 -0.11,-0.561c-0.015,-0.063 -0.027,-0.125 -0.044,-0.188c-0.061,-0.236 -0.134,-0.472 -0.218,-0.708c-0.024,-0.067 -0.052,-0.134 -0.078,-0.201c-0.065,-0.172 -0.136,-0.344 -0.212,-0.514c-0.042,-0.093 -0.084,-0.185 -0.128,-0.277c-0.075,-0.155 -0.156,-0.31 -0.239,-0.463c-0.072,-0.133 -0.146,-0.266 -0.223,-0.397c-0.089,-0.15 -0.18,-0.299 -0.276,-0.447c-0.081,-0.124 -0.166,-0.246 -0.251,-0.368c-0.06,-0.085 -0.12,-0.168 -0.182,-0.252c-0.1,-0.134 -0.199,-0.269 -0.304,-0.4l-0.027,-0.032c-0.26,-0.323 -0.536,-0.634 -0.823,-0.929l-0.039,-0.04c-0.149,-0.151 -0.3,-0.299 -0.454,-0.441l-0.009,-0.008c-0.474,-0.436 -0.973,-0.827 -1.482,-1.159l0,0l-0.001,0c0.871,3.61 0.699,7.586 -0.244,11.47Z" style="fill:#fff;fill-opacity:0.20482;fill-rule:nonzero;"/><path d="M25.447,40.701c-0.025,1.08 -0.152,2.182 -0.342,3.31c0.209,-1.239 0.359,-2.329 0.342,-3.31Z" style="fill:#ce2828;fill-rule:nonzero;"/><path d="M39.58,53.238c-2.594,4.355 -7.087,7.765 -11.966,9.117c-5.304,1.471 -10.588,0.394 -15.434,-1.906c-3.564,-1.691 -6.429,-4.315 -8.806,-7.393l0,0.001c0.085,0.284 0.176,0.567 0.272,0.848l0.025,0.074c0.094,0.274 0.195,0.545 0.3,0.815l0.031,0.08c0.108,0.272 0.22,0.543 0.338,0.811l0.025,0.055c0.123,0.277 0.251,0.551 0.385,0.822l0,0.001l0.039,0.078c0.169,0.338 0.347,0.671 0.534,1c0.026,0.047 0.052,0.093 0.079,0.139c0.187,0.325 0.382,0.644 0.586,0.959l0.061,0.095c0.458,0.699 0.959,1.374 1.503,2.02l0.058,0.066c0.24,0.283 0.489,0.559 0.746,0.83c0.067,0.07 0.135,0.139 0.203,0.208c0.217,0.224 0.44,0.442 0.669,0.656c0.083,0.077 0.166,0.155 0.25,0.231c0.233,0.21 0.471,0.415 0.714,0.615c0.079,0.065 0.156,0.131 0.235,0.195l0.001,0c0.646,0.517 1.331,0.999 2.053,1.441c0.096,0.059 0.195,0.114 0.292,0.171c0.264,0.156 0.532,0.308 0.806,0.454c0.132,0.069 0.265,0.136 0.399,0.203c0.252,0.127 0.509,0.249 0.769,0.367c0.142,0.065 0.284,0.129 0.428,0.19c0.276,0.117 0.557,0.227 0.841,0.334c0.131,0.049 0.259,0.101 0.391,0.148c0.418,0.147 0.842,0.286 1.276,0.41c7.207,2.057 13.665,1.043 20.096,-2.581c3.357,-1.892 5.795,-4.581 7.371,-7.679c0.395,-0.775 0.735,-1.575 1.022,-2.395c0.287,-0.82 0.521,-1.659 0.703,-2.512c0.546,-2.559 0.623,-5.239 0.255,-7.878c-0.123,-0.88 -0.295,-1.755 -0.516,-2.619c-0.221,-0.864 -0.49,-1.718 -0.807,-2.555c-1.586,-4.185 -4.365,-7.954 -8.225,-10.549c-0.155,-0.104 -0.316,-0.212 -0.478,-0.321c-0.05,-0.034 -0.101,-0.068 -0.153,-0.102c-0.368,-0.245 -0.753,-0.493 -1.149,-0.727c-0.042,-0.025 -0.084,-0.049 -0.127,-0.074c-0.199,-0.114 -0.399,-0.225 -0.602,-0.328l-0.002,-0.001c6.671,7.046 9.73,17.429 4.509,26.186Z" style="fill:#fff;fill-opacity:0.198796;fill-rule:nonzero;"/><path d="M18.822,28.736c-14.663,1.193 -12.807,19.265 -5.604,8.66c3.681,-5.419 11.326,-9.126 5.604,-8.66Z" style="fill:#fff;fill-opacity:0.596384;fill-rule:nonzero;"/><path d="M25.258,23.429c-9.437,0.306 -16.398,2.588 -22.421,11.958c-3.806,6.464 -3.565,15.241 -0.57,21.763c3.575,7.785 9.972,12.158 18.408,13.638c4.372,0.768 8.509,-0.143 12.622,-1.42c17.222,-5.342 20.478,-23.285 12.246,-36.44c-3.102,-4.958 -8.429,-7.621 -13.814,-9.246c0.044,-0.486 0.481,-0.842 0.625,-1.029c0.602,-0.784 1.279,-1.511 1.912,-2.272c5.353,-6.44 4.039,-13.448 -3.304,-17.523c-0.743,-0.413 -1.543,-0.834 -2.363,-0.977c-1.741,-0.303 -3.099,-2.946 -4.952,-1.398c-1.581,1.321 0.287,3.156 0.403,4.787c0.359,5.047 1.535,9.908 5.602,13.46c1.383,1.209 0.74,2.14 -0.127,3.261c-1.14,1.476 -2.697,1.387 -4.267,1.438ZM27.786,12.878c-0.274,-0.575 -0.509,-1.164 -0.71,-1.763c-0.405,-1.198 -0.677,-2.44 -0.867,-3.706c-0.063,-0.423 -0.117,-0.847 -0.164,-1.274c-0.023,-0.213 -0.045,-0.427 -0.065,-0.642c-0.019,-0.212 -0.026,-0.429 -0.004,-0.636c0.063,-0.621 0.371,-1.142 1.288,-1.1l0.001,0c0.205,0.01 0.413,0.039 0.624,0.079l0.116,0.021c0.182,0.039 0.366,0.09 0.551,0.15c0.078,0.026 0.157,0.051 0.236,0.081c0.152,0.055 0.304,0.117 0.457,0.185c0.123,0.056 0.245,0.115 0.368,0.178l0.089,0.048c0.245,0.13 0.49,0.273 0.732,0.43l0.001,0.001c0.254,0.165 0.503,0.344 0.749,0.537l0.009,0.006c0.246,0.193 0.488,0.398 0.724,0.616l0,0l0.009,0.008c0.154,0.142 0.305,0.29 0.454,0.441l0.039,0.04c0.287,0.295 0.563,0.606 0.823,0.929l0.027,0.032c0.105,0.131 0.204,0.266 0.304,0.4c0.062,0.084 0.122,0.167 0.182,0.252c0.085,0.122 0.17,0.244 0.251,0.368c0.096,0.148 0.187,0.297 0.276,0.447c0.077,0.131 0.151,0.264 0.223,0.397c0.083,0.153 0.164,0.308 0.239,0.463c0.044,0.092 0.086,0.184 0.128,0.277c0.076,0.17 0.147,0.342 0.212,0.514c0.026,0.067 0.054,0.134 0.078,0.201c0.084,0.236 0.157,0.472 0.218,0.708c0.017,0.063 0.029,0.125 0.044,0.188c0.044,0.187 0.081,0.375 0.11,0.561c0.011,0.069 0.022,0.138 0.031,0.208c0.03,0.24 0.051,0.481 0.053,0.717c-0.078,0.687 -0.233,1.479 -0.578,2.19c-0.258,0.532 -0.622,1.02 -1.14,1.385c-0.173,0.121 -0.363,0.23 -0.571,0.321c-0.147,0.064 -0.288,0.11 -0.426,0.148l-0.12,0.029c-0.104,0.023 -0.206,0.04 -0.306,0.051l-0.104,0.011c-0.13,0.007 -0.258,0.007 -0.382,-0.007l-0.03,-0.005c-0.115,-0.013 -0.227,-0.037 -0.336,-0.067l-0.089,-0.027c-0.098,-0.031 -0.194,-0.067 -0.288,-0.11l-0.057,-0.025c-0.116,-0.056 -0.229,-0.119 -0.338,-0.19l-0.013,-0.009c-0.105,-0.068 -0.206,-0.143 -0.306,-0.224l-0.049,-0.04c-0.101,-0.083 -0.198,-0.177 -0.295,-0.271c-0.269,-0.261 -0.523,-0.552 -0.76,-0.857l-0.039,-0.05c-0.099,-0.13 -0.197,-0.26 -0.292,-0.392c-0.518,-0.713 -0.952,-1.457 -1.317,-2.223ZM30.503,26.987c0.129,-0.096 0.259,-0.175 0.39,-0.248l0.085,-0.047c0.128,-0.067 0.257,-0.125 0.386,-0.173l0.066,-0.021c0.119,-0.04 0.238,-0.073 0.358,-0.099l0.072,-0.016c0.131,-0.025 0.263,-0.041 0.395,-0.05l0.092,-0.004c0.128,-0.006 0.256,-0.006 0.385,0.002l0.027,0.001c0.134,0.009 0.269,0.028 0.404,0.05l0.101,0.018c0.132,0.025 0.263,0.054 0.393,0.09l0.08,0.024c0.114,0.033 0.228,0.069 0.342,0.109l0.097,0.034c0.127,0.048 0.254,0.099 0.38,0.154l0.113,0.05c0.11,0.049 0.22,0.101 0.33,0.156l0.071,0.034l0.001,0l0.002,0.002c0.203,0.103 0.403,0.214 0.602,0.328c0.043,0.025 0.085,0.049 0.127,0.074c0.396,0.234 0.781,0.482 1.149,0.727c0.052,0.034 0.103,0.068 0.153,0.102c0.162,0.109 0.323,0.217 0.478,0.321c3.86,2.595 6.639,6.364 8.225,10.549c0.317,0.837 0.586,1.691 0.807,2.555c0.221,0.864 0.393,1.739 0.516,2.619c0.368,2.639 0.291,5.319 -0.255,7.878c-0.182,0.853 -0.416,1.692 -0.703,2.512c-0.287,0.82 -0.627,1.62 -1.022,2.395c-1.576,3.098 -4.014,5.787 -7.371,7.679c-6.431,3.624 -12.889,4.638 -20.096,2.581c-0.434,-0.124 -0.858,-0.263 -1.276,-0.41c-0.132,-0.047 -0.26,-0.099 -0.391,-0.148c-0.284,-0.107 -0.565,-0.217 -0.841,-0.334c-0.144,-0.061 -0.286,-0.125 -0.428,-0.19c-0.26,-0.118 -0.517,-0.24 -0.769,-0.367c-0.134,-0.067 -0.267,-0.134 -0.399,-0.203c-0.274,-0.146 -0.542,-0.298 -0.806,-0.454c-0.097,-0.057 -0.196,-0.112 -0.292,-0.171c-0.722,-0.442 -1.406,-0.924 -2.053,-1.441l0,0c-0.08,-0.064 -0.157,-0.13 -0.236,-0.195c-0.243,-0.2 -0.481,-0.405 -0.714,-0.615c-0.084,-0.076 -0.167,-0.154 -0.25,-0.231c-0.229,-0.214 -0.452,-0.432 -0.669,-0.656c-0.068,-0.069 -0.136,-0.138 -0.203,-0.208c-0.257,-0.271 -0.506,-0.547 -0.746,-0.83l-0.058,-0.066l0,0c-0.544,-0.646 -1.045,-1.321 -1.503,-2.02l-0.061,-0.095c-0.204,-0.315 -0.399,-0.634 -0.586,-0.959c-0.027,-0.046 -0.053,-0.092 -0.079,-0.139c-0.187,-0.329 -0.365,-0.662 -0.534,-1l-0.039,-0.078l0,-0.001c-0.133,-0.269 -0.26,-0.541 -0.382,-0.815l-0.03,-0.068c-0.116,-0.264 -0.227,-0.53 -0.333,-0.798l-0.036,-0.093c-0.104,-0.267 -0.204,-0.536 -0.297,-0.807l-0.027,-0.08c-0.095,-0.28 -0.187,-0.561 -0.271,-0.844l0,-0.001c-0.23,-0.774 -0.416,-1.558 -0.56,-2.349l-0.02,-0.103c-0.041,-0.233 -0.077,-0.466 -0.112,-0.699c-0.009,-0.066 -0.018,-0.132 -0.027,-0.198c-0.031,-0.226 -0.06,-0.454 -0.084,-0.681c-0.005,-0.051 -0.009,-0.103 -0.013,-0.153c-0.048,-0.483 -0.08,-0.966 -0.095,-1.448l-0.003,-0.076c-0.005,-0.188 -0.005,-0.375 -0.005,-0.562c0,-0.126 -0.001,-0.253 0.001,-0.379c0.003,-0.171 0.008,-0.341 0.015,-0.511c0.006,-0.149 0.014,-0.298 0.023,-0.446c0.01,-0.154 0.018,-0.309 0.031,-0.462c0.017,-0.199 0.038,-0.397 0.06,-0.595c0.015,-0.134 0.03,-0.269 0.047,-0.403c0.035,-0.265 0.075,-0.53 0.12,-0.794c0.019,-0.11 0.042,-0.221 0.062,-0.331c0.038,-0.201 0.078,-0.401 0.123,-0.6c0.024,-0.113 0.05,-0.226 0.078,-0.339c0.049,-0.206 0.102,-0.411 0.158,-0.615c0.026,-0.097 0.051,-0.195 0.08,-0.291c0.086,-0.298 0.177,-0.593 0.277,-0.886l0,-0.001c3.022,-6.942 6.837,-10.406 10.511,-12.115c0.525,-0.244 1.047,-0.452 1.563,-0.63c1.549,-0.533 3.047,-0.788 4.421,-0.902c0.229,-0.02 0.455,-0.035 0.677,-0.046c1.996,-0.107 3.685,0.055 4.819,0.026c0.129,-0.003 0.251,0.002 0.364,0.016c0.796,0.097 1.207,0.616 1.122,1.566c-0.12,1.327 -0.239,2.655 -0.357,3.97c-0.118,1.315 -0.234,2.616 -0.349,3.893c-1.377,0.356 -1.745,-0.657 -2.421,-1.097c-0.656,-0.426 -1.316,-0.602 -1.927,-0.005c-0.255,0.249 -0.352,0.501 -0.353,0.749c-0.001,0.165 0.041,0.329 0.107,0.489c0.098,0.239 0.252,0.47 0.397,0.685c0.364,0.534 0.766,1.001 1.197,1.402c0.647,0.6 1.361,1.05 2.114,1.35c0.501,0.199 1.02,0.332 1.548,0.398c1.318,0.164 2.692,-0.089 3.987,-0.76c0.778,-0.402 1.527,-0.955 2.221,-1.658c0.231,-0.234 0.455,-0.485 0.673,-0.753c-0.845,-0.93 -1.509,0.143 -2.252,0.229c-1.202,0.137 -1.904,-0.369 -2.295,-1.434c-0.098,-0.265 -0.192,-0.553 -0.189,-0.829c0.028,-2.676 -0.93,-5.967 1.395,-7.691Z" style="fill:#fff;fill-rule:nonzero;"/></svg>