<svg xmlns="http://www.w3.org/2000/svg" width="100" height="100" viewBox="0 0 198 39" stroke-linejoin="round"><style>.a{fill:#fdfff7;}</style><path d="M51.7 18c0-2.8 2.3-6.9 6.8-6.9 1.7 0 3.4 0.8 3.4 0.8l1.6-2.7c-1.5-1-4-1.1-4-1.1 -3.4 0-6.2 1.8-7.7 4.3l0-3.7 -3.1 0 0 29.9 3.1 0 0-20.6Z" class="a"/><path d="M161 38.6l3.1 0 0-29.9 -3.1 0 0 29.9Z" class="a"/><path d="M162.5 4.5c-1.2 0-2.1-1-2.1-2.2 0-1.3 0.9-2.2 2.1-2.2l0 0c1.2 0 2.1 0.9 2.1 2.2 0 1.3-0.9 2.2-2.1 2.2l-0.1 0Z" class="a"/><path d="M183.1 35.9c-6.7 0-11.3-5.7-11.3-12.8 0-6.5 4.6-12.2 11.4-12.2 6.7 0 11.7 5.1 11.7 12.3 0 8.1-5.4 12.7-11.9 12.7M194.7 8.7l0 5.2c-2.6-3.4-6-5.7-11.6-5.7 -8.2 0-14.3 6.5-14.3 15.1 0 8.6 5.9 15.6 14.2 15.6 5.1 0 9.3-2.9 11.6-6l0 5.8 3 0 0-29.9 -3 0Z" class="a"/><path d="M105.3 35.9c-6.7 0-11.3-5.7-11.3-12.8 0-6.5 4.6-12.2 11.4-12.2 6.7 0 11.7 5.1 11.7 12.3 0 8.1-5.4 12.7-11.9 12.7M116.9 8.7l0 5.2c-2.6-3.4-6-5.7-11.6-5.7 -8.2 0-14.3 6.5-14.3 15.1 0 8.6 5.9 15.6 14.2 15.6 5.1 0 9.3-2.9 11.6-6l0 5.8 3 0 0-29.9 -3 0Z" class="a"/><path d="M139.5 35.9c-6.7 0-11.3-5.7-11.3-12.8 0-6.5 4.6-12.2 11.4-12.2 6.7 0 11.7 5.1 11.7 12.3 0 8.1-5.4 12.7-11.9 12.7M151.2 0.2l0 13.7c-2.6-3.4-6-5.7-11.6-5.7 -8.2 0-14.3 6.5-14.3 15.1 0 8.6 5.9 15.6 14.2 15.6 5.1 0 9.3-2.9 11.6-6l0 5.8 3 0 0-38.4 -3 0Z" class="a"/><path d="M22.3 6.3l15.5 26.7c-2.3-2.6-7.6-6.3-12.9-7.7 -4.2-1.1-10.4-1.2-14.3 1.5 -0.1 0.1-0.3 0.3-0.3 0.3l12-20.7ZM5.8 34.7c3.2-4.5 6.8-6.9 12.8-7.3 6.1-0.4 13 2.7 22 11.2l3.9 0 -22.3-38.6 -22.3 38.6 3.4 0c0.3-0.6 2-3.4 2.4-3.9" class="a"/><path d="M78.6 36c-7.1 0-12.4-5.3-12.4-12.3 0-7.3 5.3-12.8 12.3-12.8 3.1 0 5.8 1 8.1 3l1.4-2.4c-2.9-2.3-5.9-3.4-9.7-3.4 -8.3 0-15 7-15 15.6 0 8.6 6.6 15.2 15.4 15.2 3.4 0 6.9-1.4 9.4-3.5l-1.4-2.5c-2.8 2-4.7 3.1-8 3.1" class="a"/></svg>