<svg xmlns="http://www.w3.org/2000/svg" width="100" height="100" viewBox="0 0 201 113" stroke-linejoin="round"><style>.a{fill:#fdfff7;}</style><path d="M100.5 15.1l0.7 0c15.9-0.6 11.8-4.7 11.8-4.7 -0.3-0.5-3.2 0.8-3.2 0.8l-0.7-6.1 0-0.1c0 0-1-4.8-8.7-4.3 -7.1 0.5-7.7 4.2-7.7 4.2l-0.8 6.2c0 0-2.9-1.2-3.2-0.8 0 0-4.1 4.1 11.8 4.7ZM124.1 45.5c-0.9-1.2-2.8-3.4-6.6-6.7 -2.7-2.4-6.8-5.7-12.6-9.8 9.4-6.8 17.3-13.1 17.5-13.2l0.1-0.1 -0.5-0.7c0.8-0.6 7.4-5.3 7.9-5.7 0.6-0.5 1.1-2 1.1-2 1.1-7.1-5-6.8-5-6.8 -4.5 0.8-4.8 3.5-4.8 3.5 0.8 1.2 1.5 0.8 1.5 0.8 0.9-3.2 4.5-2.3 4.5-2.3 4.1 1.8 1.5 5.6 1.5 5.6l-7.7 5.6 0 0 -0.6-0.8 -0.1 0.1c-8 4.9-14.6 9.1-19.9 12.8 -5.2-3.6-11.5-7.7-19.3-12.3l-0.1-0.1 -0.5 0.7 -7.7-5.6c-0.1-0.2-1.1-1.7-0.7-3.3 0.3-0.9 1-1.6 2.1-2.1 0.1 0 0.5-0.1 1.1-0.1 1.2 0 2.7 0.4 3.3 2.3l0 0 0 0c0 0 0.2 0.1 0.4 0.1 0.3 0 0.8-0.2 1.3-0.9l0 0 0 0c0-0.1-0.4-2.8-4.9-3.6 0 0 0 0-0.1 0 -0.6 0-2.6 0.1-3.9 1.7 -1 1.2-1.4 3-1 5.3 0 0.1 0.5 1.6 1.1 2 0.6 0.4 7.1 5.1 7.9 5.7l-0.5 0.6 0.1 0.1c0.2 0.1 7.7 6.1 16.8 12.8 -5.4 3.9-9.3 7-11.9 9.4 -3.8 3.4-5.7 5.6-6.6 6.7l-7.5 5 0.6 0.9 7.5-5c4.9-1.7 13.9-7.6 22.5-13.7 8.8 6.3 18.1 12.4 23.1 14.2l7.5 5 0.6-0.9" class="a"/><path d="M7.7 83.1c0 3.6 0 4.5 2.7 4.5l0 1.4 -10.4 0 0-1.4c2.4 0 2.9-0.9 2.9-4.5l0-18.8c0-3.8-0.4-5.4-2.9-5.4l0-1.5 10.6 0 0 1.5c-2.8 0-2.9 1.8-2.9 5.4l0 6.8 19 0 0-7.2c0-4.1 0.1-4.9-2.9-4.9l0-1.5 10.6 0 0 1.5c-2.8 0-2.8 1.6-2.8 5l0 19.2c0 3.6 0 4.5 2.8 4.5l0 1.4 -10.6 0 0-1.4c2.9 0 2.9-0.9 2.9-4.5l0-9.3 -19 0" class="a"/><path d="M112.2 89l0-1.3c3.1 0 1.5-2.3 0.6-3.4 -2.6-3.1-7-8.5-7-8.5l-2 1.7 0 6.5c0 3 0.4 3.7 2.5 3.7l0 1.3 -9.4 0 0-1.3c2.1 0 2.5-0.6 2.5-3.7l0-16c0-3 0.3-3.8-2.4-3.8l0-1.3 9.3 0 0 1.3c-2.1 0-2.5 0.8-2.5 3.5l0 7.2c0 0 7.6-6.3 9.1-7.7 1.6-1.5 1.4-3-0.6-3l0-1.3 8.8 0 0 1.3c-2 0-2.8 1-5 2.8l-7.1 6.4c0 0 7.4 9.3 9 11.2 2.2 2.6 3.2 3.1 5.3 3.1l0 1.3" class="a"/><path d="M47.2 75l3.1-8.2 3.1 8.2 -6.3 0ZM61.8 83.7l-8.8-21.4 -3.6 0 -8.2 21.4c-1.4 3.6-1.9 4-4 4l0 1.3 8.4 0 0-1.3c-3 0-2.6-1.8-1.9-3.7l2.6-6.8 8 0 2.5 6.5c0.7 1.8 1.8 3.9-1.7 3.9l0 1.3 10.5 0 0-1.3c-1.9 0-2.4-0.8-3.7-4" class="a"/><path d="M90.8 87.7c0 0-3.2 1.8-9.8 1.8 -8.8 0-14.2-5.5-14.6-13.3 -0.3-7.3 5-14.3 14.9-14.3 4.7 0 7.2 1.4 8.5 1.4 0.3 0 0.6-0.3 0.8-0.5l1.1 0 0.6 7.1 -1.3 0c-1.6-4.4-4.7-6.1-9.4-6.1 -6.4 0-9.8 4.4-9.8 11.6 0 7.5 4 12.4 10.6 12.4 4.2 0 6.5-1.1 8.9-5.2l1.1 0.2" class="a"/><path d="M151.6 62.1l0.8 0c0.2 0.5 0.6 0.7 3.1 0.7l15.6 0c2.2 0 2.9-0.1 3.1-0.7l0.6 0 0.7 5.4 -1.1 0c-0.8-2.4-1.9-2.5-4.6-2.6l-4.4 0 0 19.2c0 3 0.4 3.7 3.2 3.7l0 1.3 -11 0 0-1.3c3 0 3.5-0.6 3.5-3.7l-0.1-19.2 -4.7 0c-2.4 0.1-3.5 0.1-4.3 2.6l-1 0" class="a"/><path d="M177.5 62.1l0.8 0c0.2 0.5 0.6 0.7 3.1 0.7l15.6 0c2.2 0 2.9-0.1 3.1-0.7l0.6 0 0.7 5.4 -1.1 0c-0.8-2.4-1.9-2.5-4.6-2.6l-4.4 0 0 19.2c0 3 0.4 3.7 3.2 3.7l0 1.3 -11 0 0-1.3c3 0 3.5-0.6 3.5-3.7l0-19.2 -4.7 0c-2.5 0.1-3.4 0.1-4.3 2.6l-1.1 0" class="a"/><path d="M126.7 89.1l0-1.3c2.8 0 3.2-0.6 3.2-3.7l0-17c0-2.3-0.1-2.9-2.9-2.9l0-1.4 19.5 0 0.8 4.7 -1.3 0c0 0-0.5-2.6-4-2.6l-7.8 0 0 9.7 6.9 0c2.5 0 3.4 0 3.6-1.9l0.8 0 0 6 -0.8 0c-0.2-2-1.1-2-3.6-2l-6.9 0 0 6.8 0 3.6 6.8 0c4.3 0 5.9-0.1 6.7-2.8l1.2 0 -1 4.9" class="a"/><path d="M52.2 98.6l0 13 8.3 0 0-1.6c0 0-5.4 0-5.7 0 0-0.3 0-11.5 0-11.5" class="a"/><path d="M81.1 111.7l1.8 0c0 0 0-8.8 0-9.5 0.5 0.5 9.4 9.5 9.4 9.5l1.3 0 0-13.1 -1.8 0c0 0 0 8 0 8.7 -0.5-0.5-8.6-8.7-8.6-8.7l-2.2 0" class="a"/><path d="M136.4 98.8l0 12.9 1.8 0c0 0 0-8.8 0-9.5 0.5 0.5 9.4 9.5 9.4 9.5l1.3 0 0-13 -1.8 0c0 0 0 8 0 8.7 -0.5-0.5-8.6-8.7-8.6-8.7l-2.2 0" class="a"/><path d="M103.9 100.1c2.5 0 3.8 0.2 4.7 1.1 1.1 1.1 1.5 2.2 1.5 3.9 0 1.6-0.5 2.9-1.5 3.9 -0.9 0.9-2 1.2-4.6 1.2 0 0-1.1 0-1.4 0 0-0.3 0-9.8 0-10.1 0.3 0 1.2 0 1.2 0ZM100.2 98.6l-0.2 0 0 13.1 4.6 0c1.8 0 3.1-0.1 4.2-0.5 2.6-1 4.1-3.3 4.1-6.4 0-1.7-0.6-3.3-1.8-4.5 -1.4-1.5-3.1-1.7-6.7-1.7" class="a"/><path d="M64.6 105.2c0-2.6 1.8-5.4 4.7-5.4 2.9 0 4.6 2.8 4.6 5.4 0 2.6-1.2 5.4-4.6 5.4 -3.2 0-4.7-2.8-4.7-5.4ZM62 105.2c0 3.3 2.3 6.8 7.2 6.8 5 0 7.3-3.5 7.3-6.8 0-3.9-3.1-6.8-7.3-6.8 -4.2 0-7.3 2.9-7.3 6.8" class="a"/><path d="M119.7 105.2c0-2.6 1.8-5.4 4.7-5.4 2.9 0 4.6 2.8 4.6 5.4 0 2.6-1.2 5.4-4.6 5.4 -3.2 0-4.7-2.8-4.7-5.4ZM117.1 105.2c0 3.3 2.3 6.8 7.3 6.8 5 0 7.3-3.5 7.3-6.8 0-3.9-3.1-6.8-7.2-6.8 -4.1 0-7.3 3-7.3 6.8" class="a"/></svg>