<svg xmlns="http://www.w3.org/2000/svg" width="100" height="100" viewBox="0 0 354 48" stroke-linejoin="round"><style>.a{fill:#fdfff7;}</style><path d="M191.8 35.4c0.3 0.6 1 0.9 1.7 0.7 7.2-1.3 15.1 1.8 22-0.5 2.8-0.9 4-2.1 4-3 0.4 0.3 0.9 0.5 1.4 0.7 6.2 1.8 12.8-3.6 14.6-4.4 0.5 1.5 3 2.5 5.9 2.5 2 0 6.2-0.8 6.1-2.4 0-0.7-0.7-1.5-3.7-2 -0.7-0.1-1.3-0.4-1.7-1 -1.2-1.6 0.2-3.3 1.8-7.7 0.9-2.4-0.4-3.4-1.2-3.5 -0.7-0.1-1.8 0.5-1.8 0.5 -10.2-3-25.8 7.8-22.9 15.6 0.1 0.3 0.2 0.6 0.4 0.8 -0.3 0-0.5 0-0.6 0.1 -4.2 1.8-10.3-0.5-14.4-1 0.3-0.1 7.5-6.3 10.8-9.2 1.2-1 2.8-2.7 3.1-3.1 1.2-1.6 1.2-2.9 0.6-3.9 -0.6-1-2.3-2.2-7.1-1.8 -2.7 0.2-8.8 0.7-11.1 0.8 -0.8 0-1.1-0.1-1.5-0.2 -0.3-0.1-0.5-0.2-0.8-0.2 -1.6-0.1-2.5 1.5-2 3.3 0.4 1.5 2.2 2.3 3.7 2.5 3.3 0.4 10.4-0.2 10.4-0.2 -3.8 3.1-10.5 7-14.5 10.7 -2.6 2.4-3.8 4.8-3.2 6M226.1 26.3c2.8-6.2 11-6.8 11-6.8 -1.9 3.3-2.1 3.9-2.2 4.9 -1.6 0.9-9.6 4.3-8.8 1.9" class="a"/><path d="M348.2 4.5c0-0.1-0.1-0.2-0.3-0.2 -0.1 0-0.2 0-0.2 0l0 0.4 0.2 0c0.2 0 0.4-0.1 0.4-0.2" class="a"/><path d="M347.9 6c0.7 0 1.2-0.5 1.2-1.2 0-0.7-0.5-1.2-1.2-1.2l0 0c-0.7 0-1.2 0.6-1.2 1.2 0 0.7 0.5 1.2 1.2 1.2M347.3 4.1c0.1 0 0.3-0.1 0.6-0.1 0.3 0 0.4 0 0.5 0.1 0.1 0.1 0.2 0.2 0.2 0.3 0 0.2-0.1 0.3-0.3 0.4l0 0c0.2 0 0.2 0.2 0.3 0.4 0 0.2 0.1 0.3 0.1 0.4l-0.4 0c0-0.1-0.1-0.2-0.1-0.4 0-0.2-0.1-0.2-0.3-0.2l-0.2 0 0 0.6 -0.4 0 0-1.5Z" class="a"/><path d="M295.8 22c-0.5 0.4-0.5 0.9 0.4 1.5 1.5 1 0.7 1.8 0.3 2.8 -1.6 3.2-4.2 6.8-3.5 10.2 0.5 2.7 3.1 3.7 6.2 3.1 3.6-0.6 7.5-3.5 11.1-7 -0.8 4.1 1.2 6.6 2.4 7.9 1.6 1.8 3.7 1.4 3-1 -0.7-2.3 3-12.5 3.7-15.2 0.5-2 0-2.9-0.8-3.1 -2.5-0.5-3.8 3.9-9.8 8 -4 2.7-8.6 4.7-8.2 3.9 1.3-2.5 2.1-5.6 2.2-7.1 0.4-6.1-5.7-4.9-6.8-4.1" class="a"/><path d="M322.5 40c0.5-1.1 7-13.2 11.3-20.4 6.9-1.1 12.3-2.2 16.6-3.3 0.5-0.1 2.5-0.6 3-0.9 0.4-0.2 0.5-0.6 0.3-0.8 -0.6-0.8-2.8-0.5-11.2-0.2 -0.9 0-3 0.2-5.4 0.3 1.2-1.7 2.7-3.8 3.2-5 1.3-2.9-1-4.5-3-2.8 -1.8 1.5-4.6 4.3-7.4 8 -1.7 0-4.2-0.2-5.8-0.7 -0.5-0.1-1-0.3-1.5-0.3 -0.7 0-1.4 0.3-1.9 1.1 -0.7 1-0.3 2.4 1 3.2 1.1 0.7 2.8 1.3 4.9 1.6 -3.5 5.6-6.3 12.4-6.6 19.6 -0.1 3.4 1.6 2.8 2.7 0.6" class="a"/><path d="M123.2 29.5c-2.3 4.5-8.4 17-4.5 18.1 3.1 0.9 7.9-8.3 14.8-19.8 5.4-9.1 10.9-19.1 9.6-20.4 0 0 9.5 1 9.5 7.6 0 5-6.2 8.1-10.5 9.4 -2.5 0.7-4.7 0.7-5.8 1.2 -1.3 0.5 0.2 2.1 4 2.1 3.9 0 12.9-1.1 18-8.5 0 0 4.9-7-1-13.7 -5.8-6.7-16.2-5.5-20.4-3.7 -4.1 1.8-3.2 4.7-2.9 5.1 0.3 0.4 1.1 1.1 5.4 0.2 0 0-8.3 6.7-16.2 22.5" class="a"/><path d="M168.2 13.4c1.8 0.1 3.7-1.7 5-2.9 2.2-2.1 4.9-5 6-6.3 0.3-0.3 0.9-1.1 1-1.3 0.5-0.9 0.3-1.6-1.4-1.5 -2.4 0.1-7.3 1.6-10.6 4.8 -1.6 1.6-2.4 3.4-2.4 4.7 0 1.5 1.1 2.4 2.5 2.4" class="a"/><path d="M153.3 40.3c1.4 1.8 4.2 1.1 3.7-0.8 1.4-4.2 10.2-12.4 10.8-19.3 0.2-2.1 0-3-0.5-3.4 -0.3-0.3-0.7-0.4-1-0.4 -0.9 0.1-1.3 0.8-1.7 1.4 -0.1 0.2-0.2 0.4-0.9 1 -9 8.6-10.4 11.7-11.3 14.7 -0.7 2.3-0.4 5.2 0.8 6.8" class="a"/><path d="M256.4 23.7c1.2 0.9 2.9 1.4 4.8 1.8 -4.2 8.2-6.4 15.6-2.8 16.8 3.7 1.3 6.2-2.7 8.1-7.4 1.3-3.2 2.7-6.3 4.1-9.2 4-0.4 8.2-1.1 12.1-2.1 -2.6 6.2-3.8 11.7-1.3 12.7 1.8 0.9 3.7 0.2 5.2-1.7 1.5-2 2.6-5.2 3.4-7.6 0.7-2.3 1.5-4.4 2.2-6.2 2.6-0.9 4.6-1.9 5.7-2.6 1-0.7 1.1-1.4 0.4-1.6 -0.2-0.1-0.6-0.1-1.2 0 -0.7 0.1-1.8 0.3-3.5 0.6 4.2-10.9 6.7-14.2 4.3-14.9 -2.4-0.7-8.2 7.3-12.5 15.7 -0.3 0-0.5 0-0.8 0.1 -2.8 0.2-6.3 0.3-10.4 0.4 1.4-2.8 2.7-5.2 3.9-7.3 1.3-2.4 3.8-7 3.9-9.2 0-0.9-0.2-1.5-0.9-1.6 -2.7-0.4-10 8.5-15.9 18.2 -2.5 0-5.5 0-7.1 0.3 -4 0.8-4.2 3.1-1.6 4.9" class="a"/><path d="M173.9 17.7c-3.3-0.5-3.6 2.5-1.9 3.8 0.9 0.7 2.3 1.1 4.8 1.3 4.7 0.4 8.2-0.4 8.2-0.4 0 0-8.6 6.7-13.5 10.5 -2.2 1.7-5.2 3.8-6.5 6.1 -1 1.8-1 3.2-0.2 4.1 2.5 2.7 5.1-2.5 27.7 0.7 6.5 0.9 12 0.2 15.2-1.8 0.6-0.4 1.9-1.1 1.5-2.1 -0.4-1-1.9-0.5-1.9-0.5 -1.8 0.6-4.8 0.8-6.5 0.8 -6.4 0-12.5-3.9-23.8-2.9 0 0 6.4-5.4 9.8-8.3 2.2-1.9 5.1-4.7 6.1-6.7 0.9-1.9 1.1-4.1-2.2-4.1 -0.2 0-15.2-0.1-15.2-0.1 -0.6 0-1.5-0.2-1.6-0.2" class="a"/><path d="M347.7 5l0.2 0c0.2 0 0.3 0.1 0.3 0.2 0 0.2 0.1 0.3 0.1 0.4l0.4 0c0 0-0.1-0.1-0.1-0.4 0-0.2-0.1-0.3-0.3-0.4l0 0c0.2-0.1 0.3-0.2 0.3-0.4 0-0.1-0.1-0.3-0.1-0.3 -0.1-0.1-0.2-0.1-0.5-0.1 -0.3 0-0.4 0-0.6 0.1l0 1.5 0.4 0 0-0.6ZM347.7 4.3c0 0 0.1 0 0.2 0 0.2 0 0.3 0.1 0.3 0.2 0 0.2-0.2 0.2-0.4 0.2l-0.2 0 0-0.4Z" class="a"/><path d="M347.9 6.4c0.9 0 1.6-0.7 1.6-1.6 0-0.9-0.7-1.5-1.6-1.5l0 0c-0.9 0-1.6 0.7-1.6 1.5 0 0.9 0.7 1.6 1.6 1.6M347.9 3.6l0 0c0.7 0 1.2 0.6 1.2 1.2 0 0.7-0.5 1.2-1.2 1.2 -0.7 0-1.2-0.5-1.2-1.2 0-0.7 0.5-1.2 1.2-1.2" class="a"/><path d="M68 8.4c-0.2-1-0.4-2.3-0.6-3.6 -1-1.5-2-2.9-3.2-4 -0.2-0.2-0.3-0.1-0.5-0.1 0 0-0.3 0.1-0.8 0.2 0.2 0.1 0.4 0.3 0.5 0.6 0.3 0.8-1.1 1.5-1.7 1.7 -10.5 3.6-21.8 6-24.3 6.5 -0.5 0.1-0.7 0.5-1.1 0.9 -0.7 1-1.9 2.7-3 4.3 -0.8 1.6-2.3 4.5-2.9 5.4 -0.1 0.3-0.2 0.3-0.4 0.5 -0.1 0.1-0.3 0.1-0.4 0.2 0.1 0 0.2 0.1 0.3 0.3 0.2 0.3-0.1 0.6-0.6 0.9 -5.2 3-14.1 8.4-22.1 14.5 -0.4 0.3-0.1 0.4 0.2 0.3 37.4-11 72-13.6 77-14 2.6-0.2 4.2 0.2 5.1 0.9 0.8 0.8 1 2.8-0.9 3.6 -0.4 0.2-0.8 0.3-1.4 0.4 1.5-0.1 2.9-0.3 4.1-0.5 4.5-0.9 4-3.4 1.9-4.8 -0.3-0.2-0.8-0.5-1.5-0.8 -5.2-1.9-13.6-4.9-19.7-6.7 -3.1-1-3-1.5-3.8-6.8" style="fill-opacity:0.5;fill:#fdfff7"/><path d="M98.1 21.7c-5.3-2.9-14.1-6.2-26.3-9.8 -0.5-0.1-0.5-0.2-0.7-0.7 -0.4-1.2-1.5-4.2-1.8-4.9 -0.4-1.1-0.9-2.6-2.5-6.2 0 0-0.1-0.2-0.3-0.2 -0.2 0.1-0.1 0.3-0.1 0.3 0 0 0.5 2.2 0.9 4.5 0.2 1.2 0.5 2.5 0.6 3.6 0.8 5.2 0.7 5.8 3.8 6.8 6.2 1.9 14.5 4.9 19.7 6.7 2.7 1 4.5 1.7 4.8 1.7 0.7 0.3 2.2 0.9 2.7-0.3 0.3-0.7-0.1-1.2-0.9-1.6" class="a"/><path d="M89.3 24c-0.9-0.8-2.5-1.1-5.1-0.9 -5 0.4-39.6 3-77 14 -0.2 0.1-0.6 0-0.2-0.3 8-6.1 16.9-11.5 22.1-14.5 0.5-0.3 0.8-0.6 0.6-0.9 -0.1-0.2-0.2-0.2-0.3-0.3 -0.5-0.1-1.4 0.3-3.2 1.1 -4 1.6-10.3 5.4-10.3 5.4 -1.4 0.7-9.5 5.9-13.7 9.6 -0.7 0.6-1.3 1.2-1.7 1.7 -0.7 0.8-0.9 2-0.1 2.5 0.9 0.5 2.4 0.1 4.8-0.5 22.1-6 42.9-9.3 61.1-11.1 9.9-1 16.9-0.9 20.6-1.7 0.5-0.1 1-0.3 1.4-0.4 2-0.9 1.8-2.9 0.9-3.6" class="a"/><path d="M37.3 9.7c2.5-0.5 13.8-2.9 24.3-6.5 0.6-0.2 2-0.8 1.7-1.7 -0.1-0.3-0.3-0.5-0.5-0.6 -0.4-0.2-1-0.2-1.7-0.1 -4 0.9-23.3 6.3-25 6.8 -0.7 0.2-0.8 0.5-1.1 0.9 -0.1 0.1-4 7.5-5 9.5 -0.3 0.7-0.4 1-0.2 1.1 0.3 0.1 0.5-0.2 0.8-0.7 0.5-0.7 1.5-2.1 2.5-3.6 1.1-1.6 2.3-3.3 3-4.3 0.3-0.5 0.6-0.8 1.1-0.9" class="a"/><path d="M72 2.5l0.4 0 0-1.6 0.6 0 0-0.3 -1.6 0 0 0.3 0.6 0 0 1.6Z" class="a"/><path d="M73.5 1.4c0-0.2 0-0.3 0-0.5l0 0c0 0.2 0.1 0.4 0.1 0.5l0.3 1.1 0.4 0 0.3-1c0.1-0.2 0.1-0.4 0.2-0.6l0 0c0 0.2 0 0.4 0 0.5l0.1 1.1 0.4 0 -0.1-1.9 -0.5 0 -0.3 0.9c0 0.1-0.1 0.3-0.1 0.5l0 0c0-0.2-0.1-0.3-0.1-0.5l-0.3-0.9 -0.6 0 -0.1 1.9 0.4 0 0.1-1.1Z" class="a"/></svg>