<svg xmlns="http://www.w3.org/2000/svg" width="100" height="100" viewBox="0 0 187 37" stroke-linejoin="round"><style>.a{fill:#fdfff7;}</style><path d="M11.9 35.8l-3.7 0 0-30.3 -8.2 0 0-3.5 20.2 0 0 3.5 -8.3 0 0 30.3Z" class="a"/><path d="M39.9 4.9c7.8 0 13.9 6.3 13.9 14 0 7.6-6.2 14-13.9 14 -7.7 0-13.9-6.3-13.9-14 0-7.6 6.1-14 13.9-14ZM39.9 1.4c-9.7 0-17.6 7.8-17.6 17.5 0 9.7 8 17.4 17.6 17.4 9.7 0 17.6-7.7 17.6-17.4 0-9.7-8-17.5-17.6-17.5Z" class="a"/><path d="M66.5 5.5l1.4 0c4.4 0 8.9 0.4 8.9 5.9 0 4.8-3.6 6.1-7.8 6.1l-2.5 0 0-12ZM66.5 21l2.8 0c2.8 0 5.8-0.4 8.1-2.2 2.1-1.7 3.2-4.5 3.2-7.3 0-3-1.3-6-3.8-7.7 -2.5-1.7-5.5-1.8-8.4-1.8l-5.5 0 0 33.8 3.7 0 0-14.8Z" class="a"/><path d="M89.7 0l12.3 28.4 12.3-28.4 6.9 35.8 -3.9 0 -4.3-22.9 -0.1 0 -10.9 24.3 -10.9-24.3 -0.1 0 -4.4 22.9 -3.9 0 6.9-35.8Z" class="a"/><path d="M143.6 22.7l-11.4 0 5.8-13.6 5.7 13.6ZM145 26.2l4 9.6 4.2 0 -15.2-35.4 -15.6 35.4 4.1 0 4.1-9.6 14.5 0Z" class="a"/><path d="M157.2 0.5l26.4 27.6 0-26.2 3.7 0 0 35.4 -26.4-27.6 0 26.1 -3.7 0 0-35.3Z" class="a"/></svg>