<svg xmlns="http://www.w3.org/2000/svg" width="100" height="100" viewBox="0 0 152 64" stroke-linejoin="round"><path d="M0 4.4l8.1 0 0 22.7 3.9 0 0-22.7 8.1 0 0-3.9 -20.1 0 0 3.9ZM51.6 27l18.8 0 0-3.8 -14.8 0 0-7.7 13.2 0 0-3.8 -13.2 0 0-7.5 14.6 0 0-3.8 -18.6 0 0 26.6ZM73.7 0.5l10.9 26.8 3.1 0 10.9-26.8 -4.2 0 -8.3 20.9 -8.2-20.9 -4.3 0ZM25.5 27l3.9 0 0-9.8 6 0 0.1 0.1c0.7 0.9 5 6.9 5.4 7.6 1.2 1.7 2.9 2.2 4.6 2.2 0.7 0 1.7-0.3 2.2-0.5l0.1 0 -0.1-0.1c-0.1-0.1-1.1-0.7-1.8-1.5 -0.7-0.9-5.7-7.9-5.9-8.2l-0.3-0.4 0.5-0.1c3.5-1.2 5.7-4 5.7-7.6 0-2.4-0.8-4.1-2.1-5.6 -1.6-1.7-4.8-2.7-7.8-2.7l-10.3 0 0 26.6ZM41.8 8.9c0 2.8-2 4.6-5.9 4.6l-6.4 0 0-9.1 6.5 0c4.1 0 5.9 1.6 5.9 4.5M129.7 27l3.9 0 0-9.8 6 0 0.1 0.1c0.7 0.9 5 6.9 5.4 7.6 1.2 1.7 2.9 2.2 4.6 2.2 0.7 0 1.7-0.3 2.2-0.5l0.1 0 -0.1-0.1c-0.1-0.1-1.1-0.7-1.8-1.5 -0.7-0.9-5.7-7.9-5.9-8.2l-0.3-0.4 0.5-0.1c3.5-1.2 5.7-4 5.7-7.6 0-2.4-0.8-4.1-2.1-5.6 -1.6-1.7-4.8-2.7-7.8-2.7l-10.3 0 0 26.6ZM145.9 8.9c0 2.8-2 4.6-6 4.6l-6.4 0 0-9.1 6.5 0c4.1 0 5.9 1.6 5.9 4.5M7.2 59.4l0 0c2.6 3 6.5 4.7 10.5 4.7 5.4 0 8.9-3.4 8.9-7.9 0-4.3-2.7-6.4-8.7-7.8 -5.1-1.2-5.7-2.5-5.7-4.3 0-2.2 2.2-3.5 4.5-3.5 2.7 0 4.8 1 7 3l0 0 2.3-3.2 0 0c-2.7-2.4-5.6-3.6-9.1-3.6 -5.1 0-8.7 3.2-8.7 7.5 0 4.8 3.3 6.8 8.3 7.9 5.5 1.2 6.1 2.5 6.1 4.3 0 2.3-2 3.7-4.9 3.7 -3.3 0-5.4-1.1-8.2-3.8l0 0 -2.4 3ZM87.2 63.8l11 0c6 0 9.6-3.1 9.6-7.6 0-3.7-2.6-5.4-3.7-6 -0.3-0.2-0.6-0.3-0.6-0.3 0 0 0.2-0.1 0.6-0.4 0.9-0.8 2.4-2.4 2.4-5.5 0-1.7-0.7-3.2-1.7-4.4 -1.5-1.5-3.8-2.4-6.6-2.4l-10.8 0 0 26.6ZM103.9 56c0 2.4-2 3.9-5.4 3.9l-7.4 0 0-7.7 7 0c3.8 0 5.9 1.3 5.9 3.8M102.5 44.6c0 2.4-1.9 3.9-5 3.9l-6.5 0 0-7.5 6.7 0c3 0 4.8 1.3 4.8 3.6M113.6 63.8l3.9 0 0-26.6 -3.9 0 0 26.6ZM112.2 0c-7.3 0-12.8 5.9-12.8 13.7 0 7.9 5.6 13.8 12.9 13.8 7.3 0 12.8-5.9 12.8-13.7 0-7.9-5.6-13.8-12.9-13.8M112.2 23.6c-5.1 0-8.9-4.2-8.9-9.9 0-5.6 3.8-9.8 8.9-9.8 5.1 0 8.9 4.3 8.9 9.9 0 5.6-3.8 9.8-8.9 9.8M124.7 63.8l18.8 0 0-3.8 -14.8 0 0-7.7 13.2 0 0-3.8 -13.2 0 0-7.5 14.6 0 0-3.8 -18.6 0 0 26.6ZM60.6 63.8l3.9 0 0-9.8 6 0 0.1 0.1c0.7 0.9 5 6.9 5.4 7.6 1.2 1.7 2.9 2.2 4.6 2.2 0.8 0 1.7-0.3 2.2-0.5l0.1 0 -0.1-0.1c-0.1-0.1-1.2-0.7-1.8-1.5 -0.7-0.9-5.7-7.9-5.9-8.2l-0.3-0.4 0.5-0.1c3.5-1.2 5.7-4 5.7-7.6 0-2.4-0.8-4.1-2.1-5.6 -1.6-1.7-4.8-2.7-7.8-2.7l-10.3 0 0 26.6ZM76.8 45.6c0 2.8-2 4.6-6 4.6l-6.4 0 0-9.1 6.5 0c4.1 0 5.9 1.6 5.9 4.5M42.8 36.7c-7.3 0-12.8 5.9-12.8 13.7 0 7.9 5.5 13.8 12.9 13.8 7.3 0 12.8-5.9 12.8-13.7 0-7.9-5.6-13.8-12.9-13.8M42.9 60.3c-5.1 0-8.9-4.2-8.9-9.9 0-5.6 3.8-9.8 8.9-9.8 5.1 0 8.9 4.3 8.9 9.9 0 5.6-3.8 9.8-8.9 9.8" fill="#fdfff7"/></svg>