<?xml version="1.0" encoding="UTF-8" standalone="no"?><!DOCTYPE svg PUBLIC "-//W3C//DTD SVG 1.1//EN" "http://www.w3.org/Graphics/SVG/1.1/DTD/svg11.dtd"><svg width="100%" height="100%" viewBox="0 0 201 113" version="1.1" xmlns="http://www.w3.org/2000/svg" xmlns:xlink="http://www.w3.org/1999/xlink" xml:space="preserve" style="fill-rule:evenodd;clip-rule:evenodd;stroke-linejoin:round;stroke-miterlimit:1.41421;"><g><path d="M100.472,15.053l0.721,0.039c15.868,-0.604 11.788,-4.686 11.788,-4.686c-0.3,-0.451 -3.172,0.756 -3.172,0.756l-0.749,-6.127l-0.009,-0.071c0,0 -1.022,-4.796 -8.69,-4.268c-7.137,0.493 -7.745,4.232 -7.745,4.232l-0.755,6.198c0,0 -2.875,-1.209 -3.175,-0.757c0,0 -4.079,4.08 11.786,4.684ZM124.116,45.497c-0.896,-1.178 -2.805,-3.374 -6.641,-6.746c-2.744,-2.411 -6.773,-5.672 -12.556,-9.813c9.376,-6.833 17.298,-13.096 17.466,-13.229l0.087,-0.069l-0.523,-0.684c0.822,-0.588 7.355,-5.256 7.923,-5.683c0.604,-0.455 1.057,-1.965 1.057,-1.965c1.056,-7.099 -4.986,-6.801 -4.986,-6.801c-4.537,0.757 -4.84,3.478 -4.84,3.478c0.757,1.209 1.514,0.755 1.514,0.755c0.907,-3.175 4.533,-2.268 4.533,-2.268c4.079,1.816 1.513,5.592 1.513,5.592l-7.709,5.592l0.005,0.007l-0.582,-0.761l-0.087,0.053c-8.039,4.867 -14.592,9.127 -19.917,12.801c-5.205,-3.57 -11.55,-7.68 -19.26,-12.348l-0.087,-0.053l-0.508,0.666l-7.693,-5.584c-0.113,-0.174 -1.09,-1.749 -0.658,-3.263c0.259,-0.907 0.973,-1.627 2.122,-2.139c0.069,-0.017 0.514,-0.115 1.096,-0.115c1.202,0 2.749,0.4 3.294,2.305l0.012,0.043l0.038,0.023c0.007,0.004 0.168,0.099 0.414,0.099c0.317,0 0.791,-0.155 1.252,-0.893l0.021,-0.033l-0.005,-0.039c-0.012,-0.115 -0.364,-2.813 -4.943,-3.576c0,0 -0.04,-0.002 -0.112,-0.002c-0.588,0 -2.609,0.12 -3.942,1.667c-1.04,1.205 -1.393,2.977 -1.049,5.283c0.019,0.063 0.474,1.55 1.099,2.022c0.562,0.422 7.078,5.076 7.924,5.68l-0.457,0.597l0.088,0.069c0.164,0.13 7.74,6.119 16.839,12.771c-5.45,3.928 -9.287,7.039 -11.93,9.362c-3.835,3.371 -5.745,5.566 -6.641,6.744l-7.47,5.001l0.59,0.879l7.504,-5.022c4.897,-1.713 13.864,-7.582 22.471,-13.696c8.8,6.276 18.094,12.395 23.111,14.15l7.504,5.023l0.59,-0.88" style="fill:#fdfff7;fill-rule:nonzero;"/><g><path d="M7.718,83.123c0,3.608 0.008,4.474 2.726,4.474l0,1.445l-10.444,0l0,-1.445c2.449,0 2.893,-0.866 2.893,-4.474l0.006,-18.785c0,-3.802 -0.404,-5.401 -2.853,-5.401l0,-1.466l10.567,0l0,1.466c-2.803,0 -2.919,1.848 -2.896,5.374l0.001,6.808l19.049,0l-0.005,-7.248c0,-4.106 0.066,-4.934 -2.856,-4.934l0,-1.466l10.648,0l0,1.466c-2.783,0 -2.822,1.569 -2.815,4.968l-0.006,19.218c0,3.599 -0.009,4.474 2.775,4.474l0,1.445l-10.648,0l0,-1.445c2.921,0 2.907,-0.903 2.907,-4.502l0,-9.294l-19.049,0" style="fill:#fdfff7;fill-rule:nonzero;"/><path d="M112.201,89.045l0,-1.337c3.06,0 1.53,-2.326 0.597,-3.433c-2.598,-3.086 -6.996,-8.513 -6.996,-8.513l-2.009,1.734l0.003,6.536c0,3.041 0.43,3.676 2.537,3.676l0,1.337l-9.399,0l0,-1.337c2.131,0 2.535,-0.626 2.535,-3.681l0,-16.024c0,-2.954 0.303,-3.844 -2.444,-3.844l0,-1.334l9.261,0l0,1.334c-2.143,0 -2.49,0.849 -2.49,3.504l0,7.189c0,0 7.56,-6.315 9.086,-7.72c1.646,-1.514 1.429,-2.973 -0.63,-2.973l0,-1.334l8.824,0l0,1.334c-2.008,0 -2.81,0.99 -4.962,2.835l-7.094,6.362c0,0 7.376,9.331 8.999,11.212c2.247,2.603 3.214,3.14 5.282,3.14l0,1.337" style="fill:#fdfff7;fill-rule:nonzero;"/><path d="M47.16,75.003l3.12,-8.176l3.131,8.176l-6.251,0ZM61.843,83.673l-8.8,-21.443l-3.585,0l-8.203,21.443c-1.407,3.551 -1.866,4.046 -4.011,4.046l0,1.323l8.385,0l0,-1.323c-2.976,0 -2.602,-1.81 -1.926,-3.662l2.591,-6.788l7.985,0l2.492,6.509c0.67,1.796 1.758,3.933 -1.745,3.933l0,1.324l10.541,0l0,-1.324c-1.911,0 -2.384,-0.76 -3.724,-4.038" style="fill:#fdfff7;fill-rule:nonzero;"/><path d="M90.79,87.67c0,0 -3.241,1.773 -9.78,1.773c-8.805,0 -14.236,-5.532 -14.578,-13.284c-0.322,-7.272 4.987,-14.31 14.92,-14.31c4.668,0 7.238,1.414 8.481,1.414c0.342,0 0.556,-0.292 0.771,-0.507l1.07,0l0.577,7.066l-1.285,0c-1.584,-4.41 -4.69,-6.083 -9.443,-6.083c-6.422,0 -9.789,4.407 -9.789,11.643c0,7.494 4.008,12.362 10.56,12.362c4.197,0 6.47,-1.138 8.868,-5.206l1.136,0.224" style="fill:#fdfff7;fill-rule:nonzero;"/><path d="M151.588,62.131l0.756,0c0.227,0.538 0.552,0.729 3.148,0.729l15.571,0c2.184,0 2.89,-0.085 3.146,-0.729l0.588,0l0.71,5.353l-1.139,0c-0.829,-2.408 -1.889,-2.532 -4.586,-2.596l-4.402,0l0,19.194c0,3.048 0.437,3.687 3.152,3.687l0,1.324l-10.965,0l0,-1.324c2.957,0 3.494,-0.639 3.494,-3.687l-0.078,-19.183l-4.658,0c-2.441,0.086 -3.451,0.093 -4.302,2.616l-1.028,0" style="fill:#fdfff7;fill-rule:nonzero;"/><path d="M177.484,62.131l0.758,0c0.226,0.538 0.551,0.729 3.147,0.729l15.572,0c2.183,0 2.89,-0.085 3.146,-0.729l0.588,0l0.709,5.353l-1.129,0c-0.83,-2.408 -1.9,-2.532 -4.598,-2.604l-4.402,0l0,19.202c0,3.048 0.44,3.687 3.155,3.687l0,1.324l-10.966,0l0,-1.324c2.96,0 3.494,-0.639 3.494,-3.687l0,-19.194l-4.652,0c-2.526,0.064 -3.443,0.104 -4.294,2.627l-1.12,0" style="fill:#fdfff7;fill-rule:nonzero;"/><path d="M126.703,89.093l0,-1.324c2.785,0 3.235,-0.639 3.235,-3.687l0,-16.964c0.014,-2.276 -0.083,-2.912 -2.872,-2.912l0,-1.353l19.538,0l0.75,4.66l-1.316,0c0,0 -0.488,-2.628 -3.973,-2.628l-7.777,0l0,9.652l6.876,0c2.483,0 3.36,-0.029 3.574,-1.926l0.753,0l0,5.955l-0.753,0c-0.233,-1.973 -1.081,-1.973 -3.574,-1.973l-6.876,0l0,6.761l0.008,3.624l6.785,0c4.325,0 5.879,-0.078 6.701,-2.815l1.155,0.041l-1.004,4.889" style="fill:#fdfff7;fill-rule:nonzero;"/><path d="M52.171,98.634l0,13.042l8.269,0l0,-1.59c0,0 -5.366,0 -5.677,0c0,-0.32 0,-11.452 0,-11.452" style="fill:#fdfff7;fill-rule:nonzero;"/><path d="M81.057,111.684l1.804,0c0,0 0.011,-8.77 0.011,-9.504c0.532,0.534 9.435,9.498 9.435,9.498l1.339,0l-0.017,-13.055l-1.803,0c0,0 0.021,7.979 0.023,8.719c-0.533,-0.544 -8.552,-8.718 -8.552,-8.718l-2.221,-0.012" style="fill:#fdfff7;fill-rule:nonzero;"/><path d="M136.36,98.79l-0.02,12.906l1.805,0c0,0 0.009,-8.769 0.011,-9.503c0.53,0.532 9.436,9.476 9.436,9.476l1.339,0l-0.018,-13.035l-1.804,0c0,0 0.022,7.98 0.024,8.719c-0.533,-0.542 -8.552,-8.718 -8.552,-8.718l-2.221,-0.01" style="fill:#fdfff7;fill-rule:nonzero;"/><path d="M103.88,100.055c2.493,0 3.764,0.159 4.71,1.104c1.072,1.071 1.529,2.244 1.529,3.925c0,1.634 -0.494,2.887 -1.547,3.943c-0.87,0.869 -2.019,1.161 -4.551,1.161c0,0 -1.086,0 -1.351,0c0,-0.314 0,-9.82 0,-10.133c0.258,0 1.21,0 1.21,0ZM100.233,98.634l-0.164,0.001l0,13.061l4.586,0c1.799,0 3.064,-0.085 4.206,-0.515c2.621,-0.99 4.066,-3.256 4.066,-6.384c0,-1.724 -0.627,-3.271 -1.81,-4.476c-1.432,-1.461 -3.146,-1.695 -6.687,-1.695" style="fill:#fdfff7;fill-rule:nonzero;"/><path d="M64.574,105.165c0,-2.611 1.788,-5.43 4.676,-5.43c2.897,0 4.627,2.76 4.627,5.43c0,2.605 -1.215,5.388 -4.627,5.388c-3.212,0 -4.676,-2.793 -4.676,-5.388ZM62.006,105.166c0,3.29 2.268,6.829 7.247,6.829c5.017,0 7.301,-3.539 7.301,-6.829c0,-3.894 -3.122,-6.83 -7.263,-6.83c-4.153,0 -7.285,2.936 -7.285,6.83" style="fill:#fdfff7;fill-rule:nonzero;"/><path d="M119.745,105.165c0,-2.611 1.788,-5.43 4.676,-5.43c2.896,0 4.627,2.76 4.627,5.43c0,2.605 -1.216,5.388 -4.627,5.388c-3.211,0 -4.676,-2.793 -4.676,-5.388ZM117.142,105.166c0,3.29 2.278,6.829 7.282,6.829c5.006,0 7.286,-3.539 7.286,-6.829c0,-3.894 -3.115,-6.83 -7.248,-6.83c-4.106,0 -7.32,3 -7.32,6.83" style="fill:#fdfff7;fill-rule:nonzero;"/></g></g></svg>