<?xml version="1.0" encoding="UTF-8" standalone="no"?><!DOCTYPE svg PUBLIC "-//W3C//DTD SVG 1.1//EN" "http://www.w3.org/Graphics/SVG/1.1/DTD/svg11.dtd"><svg width="100%" height="100%" viewBox="0 0 354 113" version="1.1" xmlns="http://www.w3.org/2000/svg" xmlns:xlink="http://www.w3.org/1999/xlink" xml:space="preserve" style="fill-rule:evenodd;clip-rule:evenodd;stroke-linejoin:round;stroke-miterlimit:1.41421;"><g><g><path d="M191.841,67.854c0.272,0.596 0.962,0.872 1.735,0.736c7.247,-1.267 15.104,1.788 22.006,-0.464c2.803,-0.912 3.976,-2.129 4.015,-3.019c0.397,0.289 0.87,0.518 1.421,0.68c6.194,1.823 12.77,-3.578 14.599,-4.384c0.46,1.497 2.974,2.499 5.88,2.484c2.017,-0.011 6.166,-0.84 6.147,-2.367c-0.007,-0.672 -0.733,-1.534 -3.663,-2.037c-0.697,-0.121 -1.311,-0.438 -1.728,-1.015c-1.175,-1.631 0.247,-3.322 1.829,-7.74c0.851,-2.384 -0.421,-3.375 -1.166,-3.503c-0.745,-0.127 -1.751,0.48 -1.751,0.48c-10.155,-2.97 -25.773,7.833 -22.905,15.616c0.108,0.293 0.244,0.566 0.408,0.816c-0.276,-0.017 -0.525,0.043 -0.611,0.08c-4.205,1.797 -10.345,-0.542 -14.43,-1.037c0.28,-0.093 7.541,-6.262 10.804,-9.215c1.153,-1.045 2.81,-2.663 3.125,-3.095c1.153,-1.582 1.209,-2.924 0.559,-3.923c-0.624,-0.953 -2.328,-2.16 -7.109,-1.763c-2.678,0.221 -8.85,0.719 -11.086,0.804c-0.775,0.028 -1.092,-0.065 -1.539,-0.21c-0.301,-0.099 -0.54,-0.179 -0.84,-0.192c-1.644,-0.069 -2.538,1.542 -2.032,3.304c0.427,1.482 2.233,2.281 3.667,2.477c3.286,0.445 10.432,-0.209 10.432,-0.209c-3.755,3.058 -10.502,7.005 -14.518,10.696c-2.639,2.425 -3.795,4.812 -3.249,6M226.086,58.775c2.817,-6.181 10.999,-6.823 10.999,-6.823c-1.868,3.335 -2.053,3.866 -2.231,4.898c-1.598,0.929 -9.582,4.253 -8.768,1.925" style="fill:#fdfff7;fill-rule:nonzero;"/><path d="M348.191,36.937c0,-0.141 -0.102,-0.236 -0.33,-0.236c-0.095,0 -0.16,0.009 -0.197,0.018l0,0.444l0.169,0c0.2,0 0.358,-0.066 0.358,-0.226" style="fill:#fdfff7;fill-rule:nonzero;"/><path d="M347.91,38.464c0.678,0.01 1.177,-0.547 1.177,-1.234c0,-0.68 -0.499,-1.237 -1.188,-1.237l-0.01,0c-0.678,0 -1.186,0.557 -1.186,1.237c0,0.687 0.508,1.234 1.207,1.234M347.297,36.494c0.142,-0.028 0.339,-0.058 0.592,-0.058c0.293,0 0.425,0.049 0.539,0.123c0.083,0.067 0.15,0.188 0.15,0.33c0,0.18 -0.132,0.311 -0.32,0.369l0,0.018c0.151,0.047 0.235,0.17 0.283,0.378c0.047,0.235 0.075,0.33 0.112,0.376l-0.386,0c-0.048,-0.055 -0.076,-0.188 -0.123,-0.366c-0.027,-0.172 -0.122,-0.246 -0.32,-0.246l-0.169,0l0,0.612l-0.358,0l0,-1.536Z" style="fill:#fdfff7;fill-rule:nonzero;"/><path d="M295.76,54.417c-0.533,0.391 -0.473,0.872 0.441,1.466c1.511,0.991 0.704,1.821 0.265,2.797c-1.553,3.204 -4.194,6.843 -3.524,10.163c0.546,2.701 3.07,3.65 6.217,3.138c3.566,-0.583 7.539,-3.49 11.129,-6.969c-0.8,4.118 1.218,6.578 2.397,7.897c1.566,1.752 3.693,1.437 2.952,-0.969c-0.698,-2.3 3.041,-12.545 3.669,-15.152c0.473,-1.963 -0.022,-2.883 -0.844,-3.063c-2.486,-0.548 -3.78,3.914 -9.827,7.995c-3.978,2.685 -8.61,4.68 -8.189,3.898c1.324,-2.466 2.065,-5.558 2.156,-7.105c0.378,-6.059 -5.749,-4.9 -6.842,-4.096" style="fill:#fdfff7;fill-rule:nonzero;"/><path d="M322.545,72.452c0.534,-1.082 6.957,-13.174 11.315,-20.379c6.93,-1.103 12.292,-2.176 16.642,-3.308c0.538,-0.14 2.544,-0.624 2.956,-0.909c0.357,-0.249 0.454,-0.583 0.266,-0.832c-0.583,-0.771 -2.751,-0.456 -11.226,-0.205c-0.92,0.026 -2.969,0.175 -5.425,0.309c1.188,-1.721 2.683,-3.769 3.229,-5.01c1.285,-2.907 -1.047,-4.477 -3.049,-2.791c-1.774,1.493 -4.583,4.302 -7.434,8.026c-1.68,-0.02 -4.177,-0.175 -5.84,-0.657c-0.505,-0.145 -1.036,-0.264 -1.55,-0.257c-0.717,0.011 -1.402,0.27 -1.929,1.058c-0.66,0.981 -0.259,2.358 0.996,3.188c1.088,0.721 2.792,1.315 4.913,1.606c-3.455,5.585 -6.328,12.384 -6.585,19.584c-0.121,3.354 1.624,2.805 2.721,0.577" style="fill:#fdfff7;fill-rule:nonzero;"/><path d="M123.179,61.917c-2.259,4.483 -8.403,16.964 -4.546,18.089c3.051,0.888 7.928,-8.252 14.81,-19.84c5.397,-9.09 10.868,-19.1 9.557,-20.374c0,0 9.502,1.036 9.478,7.608c-0.024,4.972 -6.181,8.092 -10.478,9.356c-2.499,0.736 -4.732,0.749 -5.797,1.192c-1.291,0.54 0.234,2.058 4.022,2.103c3.856,0.047 12.946,-1.136 18.037,-8.504c0,0 4.878,-6.98 -0.961,-13.664c-5.838,-6.684 -16.236,-5.525 -20.372,-3.717c-4.134,1.81 -3.229,4.684 -2.918,5.118c0.313,0.436 1.091,1.061 5.356,0.179c0,0 -8.26,6.734 -16.188,22.454" style="fill:#fdfff7;fill-rule:nonzero;"/><path d="M168.187,45.836c1.847,0.083 3.73,-1.662 4.974,-2.868c2.187,-2.125 4.85,-5.006 5.988,-6.284c0.277,-0.309 0.875,-1.082 0.994,-1.306c0.469,-0.884 0.291,-1.573 -1.411,-1.495c-2.435,0.11 -7.32,1.572 -10.627,4.827c-1.585,1.559 -2.412,3.351 -2.401,4.708c0.013,1.486 1.107,2.358 2.483,2.418" style="fill:#fdfff7;fill-rule:nonzero;"/><path d="M153.269,72.756c1.401,1.777 4.17,1.136 3.729,-0.816c1.432,-4.158 10.17,-12.375 10.761,-19.303c0.178,-2.086 -0.01,-3.004 -0.475,-3.427c-0.291,-0.264 -0.695,-0.372 -0.999,-0.356c-0.881,0.051 -1.346,0.848 -1.679,1.405c-0.114,0.188 -0.239,0.35 -0.894,0.976c-8.96,8.585 -10.389,11.729 -11.29,14.735c-0.687,2.3 -0.376,5.233 0.847,6.786" style="fill:#fdfff7;fill-rule:nonzero;"/><path d="M256.442,56.125c1.233,0.866 2.864,1.44 4.77,1.781c-4.213,8.209 -6.396,15.56 -2.833,16.811c3.684,1.292 6.174,-2.713 8.099,-7.39c1.332,-3.24 2.716,-6.337 4.083,-9.235c3.955,-0.352 8.166,-1.121 12.09,-2.075c-2.611,6.235 -3.755,11.67 -1.296,12.701c1.791,0.932 3.702,0.218 5.192,-1.717c1.518,-1.966 2.607,-5.185 3.382,-7.557c0.745,-2.276 1.468,-4.352 2.159,-6.245c2.594,-0.946 4.603,-1.869 5.672,-2.616c0.965,-0.674 1.133,-1.388 0.434,-1.615c-0.22,-0.123 -0.566,-0.121 -1.203,-0.017c-0.691,0.116 -1.754,0.339 -3.527,0.6c4.242,-10.893 6.73,-14.193 4.319,-14.865c-2.388,-0.669 -8.174,7.304 -12.502,15.718c-0.261,0.019 -0.526,0.037 -0.796,0.056c-2.845,0.192 -6.263,0.346 -10.367,0.41c1.421,-2.766 2.749,-5.234 3.896,-7.327c1.331,-2.432 3.838,-6.982 3.914,-9.176c0.032,-0.929 -0.234,-1.54 -0.875,-1.633c-2.685,-0.389 -9.973,8.477 -15.901,18.178c-2.482,0.006 -5.466,-0.05 -7.088,0.27c-3.961,0.781 -4.242,3.105 -1.622,4.943" style="fill:#fdfff7;fill-rule:nonzero;"/><path d="M173.873,50.125c-3.312,-0.516 -3.626,2.464 -1.891,3.819c0.851,0.663 2.339,1.146 4.824,1.347c4.706,0.383 8.211,-0.432 8.211,-0.432c0,0 -8.64,6.728 -13.536,10.535c-2.188,1.702 -5.175,3.812 -6.535,6.084c-1.048,1.757 -1.007,3.2 -0.199,4.058c2.522,2.673 5.053,-2.516 27.671,0.652c6.451,0.905 12.003,0.16 15.225,-1.825c0.627,-0.382 1.924,-1.104 1.54,-2.114c-0.386,-1.007 -1.874,-0.478 -1.874,-0.478c-1.776,0.575 -4.803,0.765 -6.535,0.767c-6.384,0.004 -12.498,-3.866 -23.756,-2.933c0,0 6.416,-5.41 9.785,-8.342c2.151,-1.871 5.146,-4.728 6.092,-6.706c0.892,-1.866 1.058,-4.144 -2.159,-4.144c-0.208,0 -15.215,-0.065 -15.215,-0.065c-0.576,0 -1.486,-0.199 -1.648,-0.223" style="fill:#fdfff7;fill-rule:nonzero;"/><path d="M347.655,37.418l0.169,0c0.198,0 0.293,0.074 0.32,0.246c0.047,0.178 0.075,0.311 0.123,0.366l0.386,0c-0.037,-0.046 -0.065,-0.141 -0.112,-0.376c-0.048,-0.208 -0.132,-0.331 -0.283,-0.378l0,-0.018c0.188,-0.058 0.32,-0.189 0.32,-0.369c0,-0.142 -0.067,-0.263 -0.15,-0.33c-0.114,-0.074 -0.246,-0.123 -0.539,-0.123c-0.253,0 -0.45,0.03 -0.592,0.058l0,1.536l0.358,0l0,-0.612ZM347.664,36.719c0.037,-0.009 0.102,-0.018 0.197,-0.018c0.228,0 0.33,0.095 0.33,0.236c0,0.16 -0.158,0.226 -0.358,0.226l-0.169,0l0,-0.444Z" style="fill:#fdfff7;fill-rule:nonzero;"/><path d="M347.899,38.785c0.897,0 1.584,-0.68 1.584,-1.555c0,-0.859 -0.687,-1.548 -1.573,-1.548l-0.011,0c-0.885,0 -1.593,0.689 -1.593,1.548c0,0.875 0.708,1.555 1.593,1.555M347.889,35.993l0.01,0c0.689,0 1.188,0.557 1.188,1.237c0,0.687 -0.499,1.244 -1.177,1.234c-0.699,0 -1.207,-0.547 -1.207,-1.234c0,-0.68 0.508,-1.237 1.186,-1.237" style="fill:#fdfff7;fill-rule:nonzero;"/></g><path d="M67.964,40.804c-0.166,-1.042 -0.402,-2.323 -0.642,-3.558c-0.954,-1.488 -2.034,-2.899 -3.215,-3.968c-0.167,-0.153 -0.335,-0.146 -0.51,-0.099c-0.017,0.006 -0.291,0.082 -0.762,0.214c0.218,0.116 0.384,0.3 0.481,0.589c0.277,0.838 -1.136,1.48 -1.708,1.676c-10.493,3.602 -21.845,5.961 -24.311,6.457c-0.503,0.1 -0.732,0.471 -1.056,0.935c-0.693,0.99 -1.89,2.706 -3.019,4.322c-0.814,1.577 -2.335,4.455 -2.861,5.447c-0.143,0.27 -0.182,0.341 -0.445,0.468c-0.136,0.067 -0.279,0.138 -0.417,0.205c0.136,0.043 0.242,0.13 0.32,0.285c0.164,0.327 -0.123,0.633 -0.622,0.918c-5.199,2.968 -14.118,8.407 -22.134,14.504c-0.409,0.311 -0.067,0.374 0.177,0.302c37.419,-11.048 72.01,-13.624 76.999,-14.02c2.55,-0.203 4.228,0.154 5.081,0.922c0.843,0.759 1.039,2.763 -0.937,3.618c-0.389,0.17 -0.847,0.311 -1.374,0.436c1.517,-0.129 2.927,-0.302 4.104,-0.548c4.496,-0.944 4.049,-3.449 1.913,-4.762c-0.317,-0.195 -0.81,-0.473 -1.494,-0.836c-5.196,-1.883 -13.567,-4.855 -19.737,-6.747c-3.121,-0.957 -3.004,-1.531 -3.831,-6.76" style="fill:#fdfff7;fill-opacity:0.5;fill-rule:nonzero;"/><path d="M98.075,54.179c-5.304,-2.881 -14.098,-6.248 -26.299,-9.807c-0.454,-0.134 -0.547,-0.194 -0.726,-0.686c-0.445,-1.221 -1.518,-4.171 -1.769,-4.907c-0.384,-1.115 -0.875,-2.551 -2.529,-6.172c0,0 -0.121,-0.229 -0.274,-0.16c-0.151,0.071 -0.084,0.255 -0.084,0.255c0,0 0.47,2.185 0.928,4.544c0.24,1.235 0.476,2.516 0.642,3.558c0.827,5.229 0.71,5.803 3.831,6.76c6.17,1.892 14.541,4.864 19.737,6.747c2.693,0.974 4.533,1.656 4.772,1.743c0.696,0.255 2.182,0.878 2.663,-0.288c0.294,-0.714 -0.108,-1.161 -0.892,-1.587" style="fill:#fdfff7;fill-rule:nonzero;"/><path d="M89.32,56.403c-0.853,-0.768 -2.531,-1.125 -5.081,-0.922c-4.989,0.396 -39.58,2.972 -76.999,14.02c-0.244,0.072 -0.586,0.009 -0.177,-0.302c8.016,-6.097 16.935,-11.536 22.134,-14.504c0.499,-0.285 0.786,-0.591 0.622,-0.918c-0.078,-0.155 -0.184,-0.242 -0.32,-0.285c-0.477,-0.149 -1.371,0.324 -3.153,1.065c-3.959,1.648 -10.338,5.386 -10.338,5.386c-1.356,0.736 -9.498,5.885 -13.686,9.636c-0.697,0.624 -1.283,1.208 -1.712,1.73c-0.683,0.831 -0.89,2.024 -0.11,2.492c0.857,0.514 2.377,0.149 4.79,-0.511c22.086,-6.037 42.916,-9.323 61.11,-11.099c9.908,-0.967 16.927,-0.874 20.609,-1.734c0.527,-0.125 0.985,-0.266 1.374,-0.436c1.976,-0.855 1.78,-2.859 0.937,-3.618" style="fill:#fdfff7;fill-rule:nonzero;"/><path d="M37.297,42.115c2.466,-0.496 13.818,-2.855 24.311,-6.457c0.572,-0.196 1.985,-0.838 1.708,-1.676c-0.097,-0.289 -0.263,-0.473 -0.481,-0.589c-0.398,-0.212 -0.979,-0.184 -1.678,-0.076c-3.961,0.916 -23.305,6.287 -25.006,6.81c-0.664,0.205 -0.821,0.468 -1.091,0.898c-0.089,0.147 -3.982,7.526 -4.991,9.52c-0.328,0.65 -0.402,0.971 -0.19,1.099c0.25,0.149 0.525,-0.234 0.84,-0.683c0.466,-0.669 1.454,-2.086 2.503,-3.589c1.129,-1.616 2.326,-3.332 3.019,-4.322c0.324,-0.464 0.553,-0.835 1.056,-0.935" style="fill:#fdfff7;fill-rule:nonzero;"/><path d="M72.005,34.956l0.369,0l0,-1.552l0.594,0l0,-0.307l-1.557,0l0,0.307l0.594,0l0,1.552Z" style="fill:#fdfff7;fill-rule:nonzero;"/><path d="M73.503,33.863c0.005,-0.172 0.013,-0.351 0.013,-0.52l0.02,0c0.041,0.164 0.095,0.382 0.131,0.525l0.335,1.06l0.382,0l0.335,-1.032c0.054,-0.171 0.11,-0.389 0.156,-0.553l0.021,0c0.007,0.197 0.007,0.376 0.015,0.52l0.067,1.093l0.37,0l-0.145,-1.859l-0.532,0l-0.321,0.915c-0.041,0.137 -0.082,0.294 -0.13,0.465l-0.008,0c-0.046,-0.192 -0.082,-0.328 -0.123,-0.471l-0.32,-0.909l-0.553,0l-0.138,1.859l0.356,0l0.069,-1.093Z" style="fill:#fdfff7;fill-rule:nonzero;"/></g></svg>