<?xml version="1.0" encoding="UTF-8" standalone="no"?><!DOCTYPE svg PUBLIC "-//W3C//DTD SVG 1.1//EN" "http://www.w3.org/Graphics/SVG/1.1/DTD/svg11.dtd"><svg width="100%" height="100%" viewBox="0 0 166 113" version="1.1" xmlns="http://www.w3.org/2000/svg" xmlns:xlink="http://www.w3.org/1999/xlink" xml:space="preserve" style="fill-rule:evenodd;clip-rule:evenodd;stroke-linejoin:round;stroke-miterlimit:1.41421;"><path d="M0,25.944l8.878,0l0,24.756l4.242,0l0,-24.756l8.871,0l0,-4.259l-21.991,0l0,4.259ZM56.367,50.7l20.507,0l0,-4.145l-16.199,0l0,-8.432l14.376,0l0,-4.106l-14.376,0l0,-8.192l15.992,0l0,-4.14l-20.3,0l0,29.015ZM80.467,21.685l11.894,29.229l3.438,0l11.888,-29.229l-4.553,0l-9.028,22.848l-8.977,-22.848l-4.662,0ZM27.897,50.707l4.231,0l0,-10.661l6.546,0l0.105,0.131c0.784,1.037 5.422,7.574 5.916,8.281c1.329,1.866 3.198,2.419 5.004,2.419c0.817,0 1.811,-0.375 2.358,-0.525l0.075,-0.022l-0.085,-0.064c-0.1,-0.069 -1.256,-0.774 -1.982,-1.649c-0.765,-0.941 -6.232,-8.596 -6.486,-8.967l-0.315,-0.451l0.515,-0.122c3.86,-1.32 6.196,-4.337 6.196,-8.331c0,-2.577 -0.838,-4.526 -2.333,-6.16c-1.746,-1.908 -5.2,-2.901 -8.474,-2.901l-11.271,0l0,29.022ZM45.665,30.859c0,3.036 -2.207,5.012 -6.497,5.012l-7.04,0l0,-9.907l7.085,0c4.447,0 6.452,1.783 6.452,4.895M141.592,50.707l4.233,0l0,-10.661l6.544,0l0.104,0.131c0.786,1.037 5.424,7.574 5.917,8.281c1.328,1.866 3.197,2.419 5.005,2.419c0.818,0 1.809,-0.375 2.357,-0.525l0.074,-0.022l-0.084,-0.064c-0.101,-0.069 -1.256,-0.774 -1.982,-1.649c-0.764,-0.941 -6.232,-8.596 -6.485,-8.967l-0.316,-0.451l0.515,-0.122c3.86,-1.32 6.195,-4.337 6.195,-8.331c0,-2.577 -0.839,-4.526 -2.333,-6.16c-1.743,-1.908 -5.199,-2.901 -8.473,-2.901l-11.271,0l0,29.022ZM159.361,30.859c0,3.036 -2.205,5.012 -6.498,5.012l-7.038,0l0,-9.907l7.082,0c4.447,0 6.454,1.783 6.454,4.895M7.836,86.017l0.015,0.022c2.803,3.233 7.112,5.091 11.443,5.091c5.909,0 9.748,-3.699 9.748,-8.596c0,-4.723 -2.993,-7.035 -9.448,-8.518c-5.529,-1.269 -6.267,-2.727 -6.267,-4.703c0,-2.41 2.351,-3.833 4.93,-3.833c2.924,0 5.214,1.049 7.685,3.313l0.032,0.029l2.536,-3.536l-0.029,-0.021c-2.958,-2.609 -6.092,-3.895 -9.94,-3.895c-5.552,0 -9.467,3.538 -9.467,8.241c0,5.206 3.653,7.377 9.014,8.597c6.005,1.362 6.682,2.706 6.682,4.702c0,2.488 -2.165,4.049 -5.365,4.049c-3.648,0 -5.873,-1.245 -8.919,-4.15l-0.038,-0.036l-2.612,3.244ZM95.232,90.815l11.994,0c6.584,0 10.463,-3.41 10.463,-8.339c0,-4.033 -2.822,-5.949 -4.048,-6.525c-0.368,-0.171 -0.663,-0.28 -0.663,-0.28c0,0 0.19,-0.088 0.662,-0.49c1,-0.849 2.573,-2.625 2.573,-5.984c0,-1.818 -0.726,-3.539 -1.905,-4.829c-1.644,-1.669 -4.137,-2.568 -7.232,-2.568l-11.844,0l0,29.015ZM113.402,82.339c0,2.659 -2.212,4.245 -5.918,4.245l-8.101,0l0,-8.392l7.615,0c4.139,0 6.404,1.468 6.404,4.147M111.949,69.839c0,2.649 -2.059,4.24 -5.497,4.24l-7.069,0l0,-8.182l7.273,0c3.307,0 5.293,1.473 5.293,3.942M124.064,90.819l4.212,0l0,-29.019l-4.212,0l0,29.019ZM122.477,21.187c-7.999,0 -14.006,6.415 -14.006,14.919c0,8.609 6.061,15.093 14.103,15.093c7.974,0 13.995,-6.401 13.995,-14.906c0,-8.596 -6.062,-15.106 -14.092,-15.106M122.559,46.91c-5.562,0 -9.751,-4.63 -9.751,-10.779c0,-6.075 4.151,-10.657 9.681,-10.657c5.551,0 9.746,4.651 9.746,10.79c0,6.075 -4.164,10.646 -9.676,10.646M136.207,90.812l20.504,0l0,-4.141l-16.194,0l0,-8.434l14.374,0l0,-4.106l-14.374,0l0,-8.192l15.993,0l0,-4.139l-20.303,0l0,29.012ZM66.134,90.819l4.232,0l0,-10.657l6.546,0l0.104,0.131c0.785,1.035 5.422,7.571 5.916,8.28c1.33,1.864 3.201,2.417 5.003,2.417c0.821,0 1.812,-0.375 2.36,-0.526l0.076,-0.019l-0.086,-0.065c-0.101,-0.069 -1.256,-0.775 -1.981,-1.649c-0.764,-0.941 -6.233,-8.595 -6.488,-8.969l-0.316,-0.449l0.517,-0.121c3.861,-1.321 6.196,-4.34 6.196,-8.332c0,-2.577 -0.838,-4.526 -2.333,-6.16c-1.744,-1.908 -5.201,-2.9 -8.474,-2.9l-11.272,0l0,29.019ZM83.905,70.973c0,3.037 -2.21,5.012 -6.499,5.012l-7.04,0l0,-9.907l7.085,0c4.446,0 6.454,1.785 6.454,4.895M46.743,61.301c-8,0 -14.002,6.415 -14.002,14.919c0,8.611 6.058,15.093 14.1,15.093c7.972,0 13.994,-6.403 13.994,-14.906c0,-8.596 -6.064,-15.106 -14.092,-15.106M46.825,87.024c-5.561,0 -9.75,-4.63 -9.75,-10.781c0,-6.072 4.149,-10.655 9.681,-10.655c5.552,0 9.743,4.651 9.743,10.79c0,6.074 -4.163,10.646 -9.674,10.646" style="fill:#fdfff7;fill-rule:nonzero;"/></svg>