<?xml version="1.0" encoding="UTF-8" standalone="no"?><!DOCTYPE svg PUBLIC "-//W3C//DTD SVG 1.1//EN" "http://www.w3.org/Graphics/SVG/1.1/DTD/svg11.dtd"><svg width="100%" height="100%" viewBox="0 0 198 39" version="1.1" xmlns="http://www.w3.org/2000/svg" xmlns:xlink="http://www.w3.org/1999/xlink" xml:space="preserve" style="fill-rule:evenodd;clip-rule:evenodd;stroke-linejoin:round;stroke-miterlimit:1.41421;"><g><path d="M51.679,17.994c0,-2.82 2.327,-6.914 6.753,-6.914c1.703,0 3.383,0.794 3.383,0.794l1.557,-2.713c-1.512,-1.03 -3.975,-1.053 -3.975,-1.053c-3.356,0 -6.162,1.837 -7.718,4.319l0,-3.674l-3.064,0l0,29.856l3.064,0l0,-20.615Z" style="fill:#fdfff7;fill-rule:nonzero;"/><path d="M160.976,38.558l3.064,0.001l0,-29.856l-3.064,-0.002l0,29.857Z" style="fill:#fdfff7;fill-rule:nonzero;"/><path d="M162.478,4.452c-1.187,0 -2.099,-0.956 -2.097,-2.212c0,-1.308 0.905,-2.22 2.116,-2.219l0.023,0c1.214,0 2.115,0.914 2.115,2.222c-0.002,1.256 -0.914,2.211 -2.102,2.209l-0.055,0Z" style="fill:#fdfff7;fill-rule:nonzero;"/><path d="M183.093,35.908c-6.722,0 -11.303,-5.7 -11.303,-12.812c0,-6.528 4.581,-12.227 11.449,-12.227c6.676,0 11.739,5.065 11.739,12.323c0,8.135 -5.406,12.716 -11.885,12.716M194.734,8.729l0,5.16c-2.58,-3.362 -5.992,-5.748 -11.591,-5.748c-8.184,0 -14.325,6.528 -14.325,15.1c0,8.574 5.944,15.589 14.227,15.589c5.065,0 9.253,-2.922 11.643,-6.04l0,5.815l3.019,0l0,-29.876l-2.973,0Z" style="fill:#fdfff7;fill-rule:nonzero;"/><path d="M105.273,35.908c-6.722,0 -11.303,-5.7 -11.303,-12.812c0,-6.528 4.581,-12.227 11.449,-12.227c6.674,0 11.739,5.065 11.739,12.323c0,8.135 -5.407,12.716 -11.885,12.716M116.914,8.729l0,5.16c-2.582,-3.362 -5.992,-5.748 -11.593,-5.748c-8.183,0 -14.323,6.528 -14.323,15.1c0,8.574 5.944,15.589 14.227,15.589c5.065,0 9.253,-2.922 11.641,-6.04l0,5.815l3.021,0l0,-29.876l-2.973,0Z" style="fill:#fdfff7;fill-rule:nonzero;"/><path d="M139.544,35.907c-6.722,0 -11.302,-5.699 -11.302,-12.81c0,-6.529 4.58,-12.229 11.448,-12.229c6.674,0 11.74,5.067 11.74,12.324c0,8.137 -5.406,12.715 -11.886,12.715M151.187,0.193l0,13.697c-2.581,-3.362 -5.993,-5.749 -11.593,-5.749c-8.185,0 -14.322,6.528 -14.322,15.101c0,8.573 5.941,15.587 14.224,15.587c5.065,0 9.254,-2.922 11.641,-6.039l0,5.815l3.022,0l0,-38.412l-2.972,0Z" style="fill:#fdfff7;fill-rule:nonzero;"/><path d="M22.279,6.261l15.452,26.664c-2.277,-2.578 -7.645,-6.341 -12.881,-7.747c-4.19,-1.073 -10.374,-1.151 -14.262,1.536c-0.119,0.085 -0.294,0.258 -0.294,0.258l11.985,-20.711ZM5.799,34.726c3.159,-4.492 6.765,-6.913 12.849,-7.312c6.102,-0.403 13.037,2.749 21.996,11.173l3.913,0l-22.278,-38.587l-22.279,38.587l3.394,0c0.34,-0.556 2.047,-3.353 2.405,-3.861" style="fill:#fdfff7;fill-rule:nonzero;"/><path d="M78.597,35.956c-7.06,0 -12.385,-5.331 -12.385,-12.254c0,-7.31 5.282,-12.823 12.289,-12.823c3.132,0 5.778,0.996 8.08,3.04l1.363,-2.431c-2.89,-2.341 -5.897,-3.395 -9.685,-3.395c-8.286,0 -15.028,6.982 -15.028,15.56c0,8.624 6.628,15.233 15.415,15.233c3.44,0 6.857,-1.359 9.383,-3.54l-1.434,-2.467c-2.76,2.011 -4.677,3.077 -7.998,3.077" style="fill:#fdfff7;fill-rule:nonzero;"/></g></svg>