<?xml version="1.0" encoding="UTF-8" standalone="no"?><!DOCTYPE svg PUBLIC "-//W3C//DTD SVG 1.1//EN" "http://www.w3.org/Graphics/SVG/1.1/DTD/svg11.dtd"><svg width="100%" height="100%" viewBox="0 0 187 37" version="1.1" xmlns="http://www.w3.org/2000/svg" xmlns:xlink="http://www.w3.org/1999/xlink" xml:space="preserve" style="fill-rule:evenodd;clip-rule:evenodd;stroke-linejoin:round;stroke-miterlimit:1.41421;"><g><path d="M11.91,35.78l-3.741,0l0,-30.318l-8.169,0l0,-3.502l20.173,0l0,3.502l-8.263,0l0,30.318Z" style="fill:#fdfff7;"/><path d="M39.945,4.914c7.768,0 13.872,6.306 13.872,13.955c0,7.603 -6.194,13.952 -13.872,13.952c-7.676,0 -13.873,-6.349 -13.873,-13.952c0,-7.649 6.107,-13.955 13.873,-13.955ZM39.945,1.412c-9.651,0 -17.614,7.842 -17.614,17.5c0,9.705 7.963,17.412 17.614,17.412c9.653,0 17.615,-7.707 17.615,-17.412c0,-9.658 -7.962,-17.5 -17.615,-17.5Z" style="fill:#fdfff7;"/><path d="M66.485,5.462l1.401,0c4.419,0 8.885,0.402 8.885,5.911c0,4.84 -3.563,6.094 -7.759,6.094l-2.527,0l0,-12.005ZM66.485,20.969l2.753,0c2.843,0 5.775,-0.358 8.07,-2.244c2.093,-1.75 3.204,-4.527 3.204,-7.263c0,-3 -1.29,-5.956 -3.785,-7.707c-2.48,-1.707 -5.505,-1.795 -8.438,-1.795l-5.544,0l0,33.82l3.74,0l0,-14.811Z" style="fill:#fdfff7;"/><path d="M89.693,0l12.288,28.418l12.333,-28.418l6.861,35.78l-3.858,0l-4.348,-22.897l-0.09,0l-10.898,24.29l-10.855,-24.29l-0.087,0l-4.351,22.897l-3.858,0l6.863,-35.78Z" style="fill:#fdfff7;"/><path d="M143.554,22.69l-11.45,0l5.792,-13.558l5.658,13.558ZM145.035,26.192l3.995,9.588l4.18,0l-15.225,-35.447l-15.625,35.447l4.131,0l4.084,-9.588l14.46,0Z" style="fill:#fdfff7;"/><path d="M157.16,0.519l26.423,27.636l0,-26.2l3.741,0l0,35.353l-26.425,-27.591l0,26.063l-3.739,0l0,-35.261Z" style="fill:#fdfff7;"/></g></svg>