<?xml version="1.0" encoding="UTF-8" standalone="no"?><!DOCTYPE svg PUBLIC "-//W3C//DTD SVG 1.1//EN" "http://www.w3.org/Graphics/SVG/1.1/DTD/svg11.dtd"><svg width="100%" height="100%" viewBox="0 0 152 64" version="1.1" xmlns="http://www.w3.org/2000/svg" xmlns:xlink="http://www.w3.org/1999/xlink" xml:space="preserve" style="fill-rule:evenodd;clip-rule:evenodd;stroke-linejoin:round;stroke-miterlimit:1.41421;"><path d="M0,4.357l8.13,0l0,22.671l3.886,0l0,-22.671l8.124,0l0,-3.9l-20.14,0l0,3.9ZM51.622,27.028l18.78,0l0,-3.796l-14.835,0l0,-7.722l13.165,0l0,-3.76l-13.165,0l0,-7.502l14.645,0l0,-3.791l-18.59,0l0,26.571ZM73.693,0.457l10.892,26.767l3.149,0l10.887,-26.767l-4.17,0l-8.268,20.923l-8.221,-20.923l-4.269,0ZM25.549,27.035l3.875,0l0,-9.763l5.994,0l0.096,0.12c0.718,0.949 4.965,6.936 5.419,7.584c1.216,1.708 2.928,2.215 4.581,2.215c0.749,0 1.659,-0.343 2.16,-0.482l0.069,-0.019l-0.078,-0.059c-0.092,-0.063 -1.15,-0.709 -1.815,-1.51c-0.7,-0.862 -5.707,-7.872 -5.94,-8.212l-0.288,-0.413l0.471,-0.112c3.535,-1.209 5.674,-3.972 5.674,-7.63c0,-2.36 -0.766,-4.144 -2.136,-5.641c-1.599,-1.747 -4.762,-2.656 -7.761,-2.656l-10.321,0l0,26.578ZM41.82,8.858c0,2.781 -2.02,4.59 -5.95,4.59l-6.446,0l0,-9.073l6.487,0c4.073,0 5.909,1.633 5.909,4.483M129.671,27.035l3.877,0l0,-9.763l5.993,0l0.095,0.12c0.72,0.949 4.968,6.936 5.419,7.584c1.216,1.708 2.928,2.215 4.584,2.215c0.749,0 1.656,-0.343 2.158,-0.482l0.068,-0.019l-0.077,-0.059c-0.093,-0.063 -1.15,-0.709 -1.815,-1.51c-0.7,-0.862 -5.707,-7.872 -5.939,-8.212l-0.289,-0.413l0.471,-0.112c3.536,-1.209 5.674,-3.972 5.674,-7.63c0,-2.36 -0.769,-4.144 -2.137,-5.641c-1.597,-1.747 -4.761,-2.656 -7.76,-2.656l-10.322,0l0,26.578ZM145.944,8.858c0,2.781 -2.019,4.59 -5.951,4.59l-6.445,0l0,-9.073l6.486,0c4.072,0 5.91,1.633 5.91,4.483M7.176,59.372l0.014,0.02c2.567,2.961 6.514,4.662 10.479,4.662c5.412,0 8.928,-3.387 8.928,-7.871c0,-4.326 -2.741,-6.444 -8.652,-7.801c-5.064,-1.162 -5.74,-2.498 -5.74,-4.307c0,-2.208 2.153,-3.511 4.515,-3.511c2.677,0 4.775,0.96 7.038,3.034l0.03,0.026l2.322,-3.237l-0.027,-0.02c-2.709,-2.389 -5.579,-3.567 -9.103,-3.567c-5.085,0 -8.67,3.24 -8.67,7.547c0,4.768 3.345,6.756 8.256,7.873c5.498,1.248 6.119,2.479 6.119,4.306c0,2.279 -1.983,3.709 -4.913,3.709c-3.341,0 -5.38,-1.14 -8.169,-3.801l-0.034,-0.033l-2.393,2.971ZM87.214,63.766l10.984,0c6.03,0 9.582,-3.123 9.582,-7.637c0,-3.693 -2.584,-5.448 -3.706,-5.976c-0.338,-0.156 -0.608,-0.256 -0.608,-0.256c0,0 0.174,-0.08 0.607,-0.448c0.915,-0.778 2.356,-2.405 2.356,-5.481c0,-1.665 -0.665,-3.241 -1.745,-4.422c-1.506,-1.529 -3.789,-2.352 -6.623,-2.352l-10.847,0l0,26.572ZM103.855,56.003c0,2.436 -2.026,3.888 -5.42,3.888l-7.42,0l0,-7.685l6.974,0c3.791,0 5.866,1.344 5.866,3.797M102.524,44.556c0,2.426 -1.886,3.883 -5.034,3.883l-6.475,0l0,-7.493l6.661,0c3.029,0 4.848,1.349 4.848,3.61M113.619,63.77l3.858,0l0,-26.576l-3.858,0l0,26.576ZM112.166,0c-7.326,0 -12.827,5.875 -12.827,13.663c0,7.885 5.55,13.822 12.915,13.822c7.303,0 12.817,-5.861 12.817,-13.651c0,-7.872 -5.552,-13.834 -12.905,-13.834M112.241,23.558c-5.094,0 -8.931,-4.241 -8.931,-9.872c0,-5.563 3.802,-9.76 8.867,-9.76c5.083,0 8.925,4.26 8.925,9.882c0,5.564 -3.814,9.75 -8.861,9.75M124.739,63.764l18.779,0l0,-3.793l-14.831,0l0,-7.724l13.164,0l0,-3.76l-13.164,0l0,-7.502l14.646,0l0,-3.791l-18.594,0l0,26.57ZM60.566,63.77l3.876,0l0,-9.76l5.994,0l0.096,0.12c0.719,0.948 4.966,6.933 5.418,7.583c1.217,1.707 2.931,2.213 4.582,2.213c0.752,0 1.659,-0.343 2.161,-0.481l0.07,-0.018l-0.079,-0.059c-0.092,-0.063 -1.151,-0.71 -1.815,-1.51c-0.699,-0.862 -5.707,-7.872 -5.941,-8.214l-0.289,-0.411l0.473,-0.112c3.536,-1.209 5.674,-3.974 5.674,-7.63c0,-2.36 -0.767,-4.144 -2.136,-5.641c-1.598,-1.747 -4.763,-2.656 -7.761,-2.656l-10.323,0l0,26.576ZM76.841,45.595c0,2.781 -2.024,4.59 -5.952,4.59l-6.447,0l0,-9.073l6.488,0c4.072,0 5.911,1.635 5.911,4.483M42.807,36.737c-7.326,0 -12.823,5.875 -12.823,13.662c0,7.887 5.549,13.823 12.914,13.823c7.301,0 12.815,-5.864 12.815,-13.651c0,-7.872 -5.553,-13.834 -12.906,-13.834M42.883,60.294c-5.093,0 -8.929,-4.24 -8.929,-9.873c0,-5.561 3.799,-9.758 8.866,-9.758c5.084,0 8.922,4.259 8.922,9.881c0,5.563 -3.812,9.75 -8.859,9.75" style="fill:#fdfff7;fill-rule:nonzero;"/></svg>